<?xml version="1.0" encoding="utf-8"?>
<!-- Generator: Adobe Illustrator 21.0.0, SVG Export Plug-In . SVG Version: 6.00 Build 0)  -->
<svg version="1.1" id="Layer_1" xmlns="http://www.w3.org/2000/svg" xmlns:xlink="http://www.w3.org/1999/xlink" x="0px" y="0px"
	 viewBox="0 0 430 150" style="enable-background:new 0 0 430 150;" xml:space="preserve">
<style type="text/css">
	.st0{fill:url(#SVGID_1_);}
	.st1{fill:url(#SVGID_2_);}
	.st2{fill:url(#SVGID_3_);}
	.st3{fill:url(#SVGID_4_);}
	.st4{fill:url(#SVGID_5_);}
	.st5{fill:url(#SVGID_6_);}
	.st6{fill:url(#SVGID_7_);}
	.st7{fill:url(#SVGID_8_);}
	.st8{fill:url(#SVGID_9_);}
	.st9{fill:url(#SVGID_10_);}
	.st10{fill:url(#SVGID_11_);}
	.st11{fill:url(#SVGID_12_);}
	.st12{fill:url(#SVGID_13_);}
	.st13{fill:url(#SVGID_14_);}
</style>
<g>
	<g>
		<g>
			<linearGradient id="SVGID_1_" gradientUnits="userSpaceOnUse" x1="184.1984" y1="38.5268" x2="-38.3998" y2="138.5664">
				<stop  offset="0" style="stop-color:#009643"/>
				<stop  offset="0.1816" style="stop-color:#009346"/>
				<stop  offset="0.3371" style="stop-color:#018951"/>
				<stop  offset="0.4831" style="stop-color:#037963"/>
				<stop  offset="0.6233" style="stop-color:#06637C"/>
				<stop  offset="0.7594" style="stop-color:#09469C"/>
				<stop  offset="0.8905" style="stop-color:#0D23C2"/>
				<stop  offset="1" style="stop-color:#1100E9"/>
			</linearGradient>
			<path class="st0" d="M103,89.7c-10.9,0-20.3,6.2-24.8,15.3L51.8,91.5c3.5-4.6,5.5-10.3,5.5-16.5s-2-11.9-5.5-16.5L78.3,45
				c4.4,8.8,13.4,15,23.9,15.3c15.3,0.5,28-11.5,28.5-26.8c0.5-15.3-11.5-28-26.8-28.5s-28,11.5-28.5,26.8c0,1.4,0,2.8,0.2,4.1
				l-31,15.8c-4.3-2.8-9.4-4.4-14.9-4.4C14.3,47.3,2,59.7,2,75s12.4,27.7,27.7,27.7c5.5,0,10.6-1.6,14.9-4.4l31,15.8
				c-0.1,1.1-0.2,2.2-0.2,3.3c0,15.3,12.4,27.7,27.7,27.7c15.3,0,27.7-12.4,27.7-27.7C130.7,102.1,118.3,89.7,103,89.7z M103.6,13.2
				c10.8,0.3,19.2,9.3,18.9,20.1c-0.3,10.8-9.3,19.2-20.1,18.9c-7.5-0.2-13.8-4.6-16.9-10.8c-1.4-2.8-2.1-5.9-2-9.3v-0.1
				C83.9,21.2,92.9,12.8,103.6,13.2z M35.4,93.6c-1.8,0.6-3.8,0.9-5.8,0.9c-10.8,0-19.5-8.7-19.5-19.5c0-10.8,8.7-19.5,19.5-19.5
				c2,0,3.9,0.3,5.8,0.9h0c3.5,1.1,6.6,3.1,8.9,5.9c3,3.4,4.8,7.9,4.8,12.8s-1.8,9.3-4.8,12.8C42.1,90.5,39,92.6,35.4,93.6
				L35.4,93.6z M103,136.8c-10.5,0-19.1-8.3-19.5-18.7c0-0.3,0-0.5,0-0.8c0-3.1,0.7-6.1,2-8.6c3.2-6.4,9.8-10.8,17.5-10.8
				c10.8,0,19.5,8.7,19.5,19.5C122.5,128.1,113.8,136.8,103,136.8z"/>
		</g>
		<g>
			<linearGradient id="SVGID_2_" gradientUnits="userSpaceOnUse" x1="168.0872" y1="3.431" x2="-52.9433" y2="102.766">
				<stop  offset="0" style="stop-color:#009643"/>
				<stop  offset="0.1816" style="stop-color:#009346"/>
				<stop  offset="0.3371" style="stop-color:#018951"/>
				<stop  offset="0.4831" style="stop-color:#037963"/>
				<stop  offset="0.6233" style="stop-color:#06637C"/>
				<stop  offset="0.7594" style="stop-color:#09469C"/>
				<stop  offset="0.8905" style="stop-color:#0D23C2"/>
				<stop  offset="1" style="stop-color:#1100E9"/>
			</linearGradient>
			<circle class="st1" cx="103" cy="32.7" r="3.1"/>
			<linearGradient id="SVGID_3_" gradientUnits="userSpaceOnUse" x1="170.9444" y1="6.3314" x2="-50.0861" y2="105.6665">
				<stop  offset="0" style="stop-color:#009643"/>
				<stop  offset="0.1816" style="stop-color:#009346"/>
				<stop  offset="0.3371" style="stop-color:#018951"/>
				<stop  offset="0.4831" style="stop-color:#037963"/>
				<stop  offset="0.6233" style="stop-color:#06637C"/>
				<stop  offset="0.7594" style="stop-color:#09469C"/>
				<stop  offset="0.8905" style="stop-color:#0D23C2"/>
				<stop  offset="1" style="stop-color:#1100E9"/>
			</linearGradient>
			<circle class="st2" cx="112.3" cy="32.7" r="3.1"/>
			<linearGradient id="SVGID_4_" gradientUnits="userSpaceOnUse" x1="165.23" y1="0.5305" x2="-55.8004" y2="99.8655">
				<stop  offset="0" style="stop-color:#009643"/>
				<stop  offset="0.1816" style="stop-color:#009346"/>
				<stop  offset="0.3371" style="stop-color:#018951"/>
				<stop  offset="0.4831" style="stop-color:#037963"/>
				<stop  offset="0.6233" style="stop-color:#06637C"/>
				<stop  offset="0.7594" style="stop-color:#09469C"/>
				<stop  offset="0.8905" style="stop-color:#0D23C2"/>
				<stop  offset="1" style="stop-color:#1100E9"/>
			</linearGradient>
			<circle class="st3" cx="93.7" cy="32.7" r="3.1"/>
		</g>
		<g>
			<linearGradient id="SVGID_5_" gradientUnits="userSpaceOnUse" x1="218.3182" y1="65.5328" x2="-2.7123" y2="164.8678">
				<stop  offset="0" style="stop-color:#009643"/>
				<stop  offset="0.1816" style="stop-color:#009346"/>
				<stop  offset="0.3371" style="stop-color:#018951"/>
				<stop  offset="0.4831" style="stop-color:#037963"/>
				<stop  offset="0.6233" style="stop-color:#06637C"/>
				<stop  offset="0.7594" style="stop-color:#09469C"/>
				<stop  offset="0.8905" style="stop-color:#0D23C2"/>
				<stop  offset="1" style="stop-color:#1100E9"/>
			</linearGradient>
			<circle class="st4" cx="103" cy="117.3" r="3.1"/>
			<linearGradient id="SVGID_6_" gradientUnits="userSpaceOnUse" x1="221.1753" y1="68.4333" x2="0.1449" y2="167.7683">
				<stop  offset="0" style="stop-color:#009643"/>
				<stop  offset="0.1816" style="stop-color:#009346"/>
				<stop  offset="0.3371" style="stop-color:#018951"/>
				<stop  offset="0.4831" style="stop-color:#037963"/>
				<stop  offset="0.6233" style="stop-color:#06637C"/>
				<stop  offset="0.7594" style="stop-color:#09469C"/>
				<stop  offset="0.8905" style="stop-color:#0D23C2"/>
				<stop  offset="1" style="stop-color:#1100E9"/>
			</linearGradient>
			<circle class="st5" cx="112.3" cy="117.3" r="3.1"/>
			<linearGradient id="SVGID_7_" gradientUnits="userSpaceOnUse" x1="215.461" y1="62.6323" x2="-5.5694" y2="161.9674">
				<stop  offset="0" style="stop-color:#009643"/>
				<stop  offset="0.1816" style="stop-color:#009346"/>
				<stop  offset="0.3371" style="stop-color:#018951"/>
				<stop  offset="0.4831" style="stop-color:#037963"/>
				<stop  offset="0.6233" style="stop-color:#06637C"/>
				<stop  offset="0.7594" style="stop-color:#09469C"/>
				<stop  offset="0.8905" style="stop-color:#0D23C2"/>
				<stop  offset="1" style="stop-color:#1100E9"/>
			</linearGradient>
			<circle class="st6" cx="93.7" cy="117.3" r="3.1"/>
		</g>
		<linearGradient id="SVGID_8_" gradientUnits="userSpaceOnUse" x1="146.9421" y1="23.1088" x2="-36.3408" y2="105.4794">
			<stop  offset="0" style="stop-color:#009643"/>
			<stop  offset="0.1816" style="stop-color:#009346"/>
			<stop  offset="0.3371" style="stop-color:#018951"/>
			<stop  offset="0.4831" style="stop-color:#037963"/>
			<stop  offset="0.6233" style="stop-color:#06637C"/>
			<stop  offset="0.7594" style="stop-color:#09469C"/>
			<stop  offset="0.8905" style="stop-color:#0D23C2"/>
			<stop  offset="1" style="stop-color:#1100E9"/>
		</linearGradient>
		<path class="st7" d="M34.3,69.2c0-2.6-2.1-4.6-4.6-4.6S25,66.7,25,69.2c0,1.6,0.8,3,2.1,3.8L25,85.4h9.2l-2.1-12.3
			C33.5,72.2,34.3,70.8,34.3,69.2z"/>
	</g>
	<g>
		<linearGradient id="SVGID_9_" gradientUnits="userSpaceOnUse" x1="225.2526" y1="48.4259" x2="177.7053" y2="69.7945">
			<stop  offset="0" style="stop-color:#009643"/>
			<stop  offset="0.1816" style="stop-color:#009346"/>
			<stop  offset="0.3371" style="stop-color:#018951"/>
			<stop  offset="0.4831" style="stop-color:#037963"/>
			<stop  offset="0.6233" style="stop-color:#06637C"/>
			<stop  offset="0.7594" style="stop-color:#09469C"/>
			<stop  offset="0.8905" style="stop-color:#0D23C2"/>
			<stop  offset="1" style="stop-color:#1100E9"/>
		</linearGradient>
		<path class="st8" d="M189.5,95.9V71.2l-18.7-34.6H183l7.1,15.2c2,4.4,3.5,7.7,5.1,11.8h0.2c1.5-3.8,3.2-7.5,5.2-11.8l7.1-15.2H220
			L200.3,71v25H189.5z"/>
		<linearGradient id="SVGID_10_" gradientUnits="userSpaceOnUse" x1="257.1605" y1="65.3635" x2="216.5455" y2="83.6166">
			<stop  offset="0" style="stop-color:#009643"/>
			<stop  offset="0.1816" style="stop-color:#009346"/>
			<stop  offset="0.3371" style="stop-color:#018951"/>
			<stop  offset="0.4831" style="stop-color:#037963"/>
			<stop  offset="0.6233" style="stop-color:#06637C"/>
			<stop  offset="0.7594" style="stop-color:#09469C"/>
			<stop  offset="0.8905" style="stop-color:#0D23C2"/>
			<stop  offset="1" style="stop-color:#1100E9"/>
		</linearGradient>
		<path class="st9" d="M258.6,74.1c0,15.7-11.1,22.8-22,22.8c-12.1,0-21.5-8.4-21.5-22.1c0-14.1,9.2-22.7,22.2-22.7
			C250,52.1,258.6,61.1,258.6,74.1z M226.3,74.6c0,8.3,4,14.5,10.6,14.5c6.2,0,10.5-6.1,10.5-14.7c0-6.7-3-14.3-10.4-14.3
			C229.4,60.1,226.3,67.4,226.3,74.6z"/>
		<linearGradient id="SVGID_11_" gradientUnits="userSpaceOnUse" x1="309.4822" y1="66.6822" x2="257.0652" y2="90.2393">
			<stop  offset="0" style="stop-color:#009643"/>
			<stop  offset="0.1816" style="stop-color:#009346"/>
			<stop  offset="0.3371" style="stop-color:#018951"/>
			<stop  offset="0.4831" style="stop-color:#037963"/>
			<stop  offset="0.6233" style="stop-color:#06637C"/>
			<stop  offset="0.7594" style="stop-color:#09469C"/>
			<stop  offset="0.8905" style="stop-color:#0D23C2"/>
			<stop  offset="1" style="stop-color:#1100E9"/>
		</linearGradient>
		<path class="st10" d="M267.4,67.3c0-5.6-0.2-10.2-0.4-14.2h9.5l0.5,6.6h0.2c3.2-4.8,8.2-7.6,14.7-7.6c9.8,0,18,8.4,18,21.8
			c0,15.5-9.8,23-19.5,23c-5.4,0-9.8-2.3-12-5.7h-0.2v22.2h-10.8V67.3z M278.3,78c0,1.1,0.1,2,0.4,3c1.1,4.4,4.9,7.6,9.5,7.6
			c6.9,0,10.9-5.7,10.9-14.2c0-7.6-3.7-13.7-10.6-13.7c-4.5,0-8.6,3.3-9.7,8c-0.3,0.9-0.4,1.8-0.4,2.7V78z"/>
		<linearGradient id="SVGID_12_" gradientUnits="userSpaceOnUse" x1="353.5467" y1="67.8951" x2="315.1034" y2="85.1721">
			<stop  offset="0" style="stop-color:#009643"/>
			<stop  offset="0.1816" style="stop-color:#009346"/>
			<stop  offset="0.3371" style="stop-color:#018951"/>
			<stop  offset="0.4831" style="stop-color:#037963"/>
			<stop  offset="0.6233" style="stop-color:#06637C"/>
			<stop  offset="0.7594" style="stop-color:#09469C"/>
			<stop  offset="0.8905" style="stop-color:#0D23C2"/>
			<stop  offset="1" style="stop-color:#1100E9"/>
		</linearGradient>
		<path class="st11" d="M343,95.9l-0.7-4.7H342c-2.6,3.3-7.1,5.7-12.7,5.7c-8.6,0-13.5-6.2-13.5-12.8c0-10.8,9.6-16.3,25.4-16.2
			v-0.7c0-2.8-1.1-7.5-8.7-7.5c-4.2,0-8.6,1.3-11.5,3.2l-2.1-7c3.2-1.9,8.7-3.8,15.5-3.8c13.7,0,17.7,8.7,17.7,18v15.5
			c0,3.9,0.2,7.7,0.6,10.3H343z M341.6,75c-7.7-0.2-14.9,1.5-14.9,8c0,4.2,2.7,6.2,6.2,6.2c4.3,0,7.5-2.8,8.4-5.9
			c0.3-0.8,0.4-1.7,0.4-2.4V75z"/>
		<linearGradient id="SVGID_13_" gradientUnits="userSpaceOnUse" x1="394.8065" y1="66.3011" x2="356.3252" y2="83.5952">
			<stop  offset="0" style="stop-color:#009643"/>
			<stop  offset="0.1816" style="stop-color:#009346"/>
			<stop  offset="0.3371" style="stop-color:#018951"/>
			<stop  offset="0.4831" style="stop-color:#037963"/>
			<stop  offset="0.6233" style="stop-color:#06637C"/>
			<stop  offset="0.7594" style="stop-color:#09469C"/>
			<stop  offset="0.8905" style="stop-color:#0D23C2"/>
			<stop  offset="1" style="stop-color:#1100E9"/>
		</linearGradient>
		<path class="st12" d="M363,86c2.5,1.5,7.1,3.1,11,3.1c4.7,0,6.9-1.9,6.9-4.7c0-2.9-1.8-4.4-7-6.2c-8.4-2.9-11.9-7.5-11.8-12.5
			c0-7.6,6.2-13.5,16.2-13.5c4.7,0,8.9,1.2,11.3,2.6l-2.1,7.7c-1.8-1.1-5.3-2.5-9.1-2.5c-3.9,0-6,1.8-6,4.5c0,2.7,2,4,7.5,6
			c7.7,2.8,11.3,6.8,11.4,13.1c0,7.7-6.1,13.4-17.4,13.4c-5.2,0-9.8-1.2-13-3L363,86z"/>
		<linearGradient id="SVGID_14_" gradientUnits="userSpaceOnUse" x1="431.4734" y1="66.3011" x2="392.9922" y2="83.5952">
			<stop  offset="0" style="stop-color:#009643"/>
			<stop  offset="0.1816" style="stop-color:#009346"/>
			<stop  offset="0.3371" style="stop-color:#018951"/>
			<stop  offset="0.4831" style="stop-color:#037963"/>
			<stop  offset="0.6233" style="stop-color:#06637C"/>
			<stop  offset="0.7594" style="stop-color:#09469C"/>
			<stop  offset="0.8905" style="stop-color:#0D23C2"/>
			<stop  offset="1" style="stop-color:#1100E9"/>
		</linearGradient>
		<path class="st13" d="M399.7,86c2.5,1.5,7.1,3.1,11,3.1c4.7,0,6.9-1.9,6.9-4.7c0-2.9-1.8-4.4-7-6.2c-8.4-2.9-11.9-7.5-11.8-12.5
			c0-7.6,6.2-13.5,16.2-13.5c4.7,0,8.9,1.2,11.3,2.6l-2.1,7.7c-1.8-1.1-5.3-2.5-9.1-2.5c-3.9,0-6,1.8-6,4.5c0,2.7,2,4,7.5,6
			c7.7,2.8,11.3,6.8,11.4,13.1c0,7.7-6.1,13.4-17.4,13.4c-5.2,0-9.8-1.2-13-3L399.7,86z"/>
	</g>
</g>
</svg>
