<svg width="238" height="72" viewBox="0 0 238 72" fill="none" xmlns="http://www.w3.org/2000/svg">
<g clip-path="url(#clip0_10258_90796)">
<path d="M71.7363 30.854H28.2422V41.261H71.7363V30.854Z" fill="black"/>
<path d="M36.1646 61.5515C22.0776 61.5515 10.6415 50.1284 10.6415 36.0574C10.6415 21.9864 22.0776 10.5633 36.1646 10.5633C44.2716 10.5633 51.4847 14.3504 56.1701 20.2313L63.9996 13.3652C57.4031 5.29818 47.385 0.15625 36.1646 0.15625C16.3133 0.15625 0.222656 16.2286 0.222656 36.0574C0.222656 55.8861 16.3133 71.9585 36.1646 71.9585C47.385 71.9585 57.4031 66.8166 63.9996 58.7496L56.1701 51.8834C51.5155 57.7643 44.2716 61.5515 36.1646 61.5515Z" fill="black"/>
<path d="M94.2704 1.20312H83.8516V70.9425H94.2704V1.20312Z" fill="black"/>
<path d="M175.708 20.0156H165.289V70.9115H175.708V20.0156Z" fill="black"/>
<path d="M144.73 20.0156L129.687 55.2702L114.614 20.0156H103.023L125.618 70.9423H133.725L156.32 20.0156H144.73Z" fill="black"/>
<path d="M170.499 12.1951C173.819 12.1951 176.51 9.507 176.51 6.19106C176.51 2.87512 173.819 0.187012 170.499 0.187012C167.179 0.187012 164.488 2.87512 164.488 6.19106C164.488 9.507 167.179 12.1951 170.499 12.1951Z" fill="#29D305"/>
<path d="M210.972 66.8166C214.122 66.8166 216.675 64.2664 216.675 61.1205C216.675 57.9746 214.122 55.4243 210.972 55.4243C207.823 55.4243 205.27 57.9746 205.27 61.1205C205.27 64.2664 207.823 66.8166 210.972 66.8166Z" fill="#29D305"/>
<path d="M215.01 20.0156H206.903L183.691 70.9423H194.973L210.972 34.9796L226.939 70.9423H238.221L215.01 20.0156Z" fill="black"/>
</g>
<defs>
<clipPath id="clip0_10258_90796">
<rect width="238" height="72" fill="white"/>
</clipPath>
</defs>
</svg>
