<?xml version="1.0" encoding="utf-8"?>
<!-- Generator: Adobe Illustrator 21.0.0, SVG Export Plug-In . SVG Version: 6.00 Build 0)  -->
<svg version="1.1" id="Ebene_1" xmlns="http://www.w3.org/2000/svg" xmlns:xlink="http://www.w3.org/1999/xlink" x="0px" y="0px"
	 viewBox="0 0 536.7 190.5" style="enable-background:new 0 0 536.7 190.5;" xml:space="preserve">
<style type="text/css">
	.st0{clip-path:url(#SVGID_2_);fill:url(#SVGID_3_);}
</style>
<g>
	<defs>
		<path id="SVGID_1_" d="M150,119.9c0-6.4,5.2-11.7,11.7-11.7s11.7,5.2,11.7,11.7c0,6.4-5.2,11.7-11.7,11.7S150,126.3,150,119.9
			 M133.8,119.9c0,15.4,12.5,27.9,27.9,27.9s27.9-12.5,27.9-27.9c0-15.4-12.5-27.9-27.9-27.9S133.8,104.4,133.8,119.9 M260.3,42.6
			v77.1h-0.2v2.2c0,1.2-0.2,2.5-0.6,3.9c-0.4,1.4-1.2,2.7-2.4,3.9c-1.2,1.2-3,2.2-5.2,3.1c-2.3,0.9-5.4,1.3-9.3,1.3
			c-3.8,0-6.7-0.4-9-1.3c-2.2-0.9-3.9-1.9-5-3.2c-1.1-1.3-1.9-2.6-2.2-4.1c-0.3-1.5-0.5-2.7-0.5-3.8v-2h-0.2V42.6h-16.9v80.1v2.2
			c0,1.5,0.3,3.6,0.8,6.3c0.5,2.7,1.9,5.5,4.2,8.1c2.3,2.7,5.7,5,10.3,6.9c4.6,1.9,10.9,2.9,18.9,2.9s14.4-1,18.9-2.9
			c4.6-1.9,8-4.3,10.3-6.9c2.3-2.7,3.7-5.4,4.2-8c0.5-2.7,0.8-4.8,0.8-6.4v-3.6V42.6H260.3z M127,41.3c-1.7,0.1-3.7,0.1-5.9,0.1
			c-8,0-14.4,1-18.9,2.9c-4.6,1.9-8,4.3-10.3,6.9c-2.3,2.7-3.7,5.4-4.2,8.1c-0.5,2.8-0.8,4.9-0.8,6.3v4.6v77.5H104V71v-1.8
			c0-1.2,0.2-2.5,0.5-3.9c0.3-1.4,1.1-2.7,2.3-4c1.2-1.3,2.9-2.4,5.1-3.3c2.2-0.9,5.1-1.4,8.8-1.4c1.5,0,2.7,0,3.8-0.1
			c1.1-0.1,2.4-0.1,4-0.1l3.8-14.7c-1.5-0.2-2.9-0.3-4.3-0.3C127.7,41.3,127.4,41.3,127,41.3 M20.5,171.5c-2.4-2.6-3.6-6.3-3.6-11.2
			v-24.7c0.3,1.3,0.9,2.3,2,3c1.1,0.7,2.1,1.1,3,1.4c2.1,0.7,4.4,1.4,6.6,2.3c2.3,0.9,4.4,1.6,6.4,2.3c2.4,0.8,4.7,1.6,6.8,2.4
			c1.7,0.7,3.4,1.6,4.8,2.8c1.2,1.1,2.3,2.4,3.2,4.1c0.9,1.7,1.4,3.8,1.4,6.3c0,5.1-1.2,8.9-3.6,11.4c-2.4,2.5-6.9,3.7-13.5,3.7
			C27.5,175.4,22.9,174.1,20.5,171.5 M16.9,72.4v-1.6v-1.8v-0.4c0-1.2,0.2-2.5,0.6-3.9c0.4-1.4,1.2-2.7,2.5-3.9
			c1.3-1.2,3.1-2.2,5.4-3.1c2.3-0.9,5.4-1.3,9.2-1.3c3.8,0,6.7,0.4,9,1.3c2.2,0.9,3.9,2,5,3.3c1.1,1.3,1.9,2.7,2.2,4.1
			c0.3,1.4,0.5,2.7,0.5,3.9v1.8v1.6c0,3.2-1.1,5.9-3.3,8.1c-2.2,2.2-4.9,3.3-7.9,3.3H28.3c-0.5,0-1.4,0.1-2.6,0.2
			c-1.2,0.1-2.4,0.4-3.7,0.8c-1.3,0.4-2.4,1-3.3,1.7c-0.9,0.7-1.5,1.7-1.8,2.9V72.4z M15.3,44.1C10.7,46,7.3,48.4,5,51
			c-2.3,2.7-3.7,5.4-4.2,8.1C0.2,61.9,0,64.1,0,65.5v3.4v1.8v34.4v10.5v0.2v3.2v41.2v5.8c0,2.4,0.4,5.1,1.3,7.9
			c0.9,2.9,2.6,5.5,5.1,7.9c2.5,2.4,6,4.4,10.5,6c4.4,1.6,10.2,2.4,17.3,2.4c7.1,0,12.9-0.8,17.3-2.4c4.4-1.6,7.9-3.6,10.5-6
			c2.5-2.4,4.3-5.1,5.1-7.9c0.9-2.9,1.3-5.5,1.3-7.9v-9.5c0-5.1-1.3-9.7-3.9-13.9c-2.6-4.2-6.3-7.1-11.2-8.9
			c-2.4-0.8-5.2-1.7-8.3-2.8c-3.2-1.1-6.1-2.1-9-3.1c-2.8-1-5.3-1.9-7.4-2.6c-2.1-0.7-3.5-1.2-4-1.3c-0.4-0.3-1-0.6-1.9-0.9
			c-0.9-0.3-1.7-0.8-2.6-1.4c-0.9-0.6-1.6-1.4-2.2-2.4c-0.6-1-0.9-2.2-0.9-3.7v-4.2c0-4,1.3-7.2,4-9.7c2.7-2.4,5.8-3.6,9.3-3.6h15.5
			c1.9,0,3.7-0.3,5.4-0.8c1.5-0.4,3.1-1,4.9-1.8c1.8-0.8,3.5-2,5.1-3.6c3.2-3.1,5.2-6.1,6-9c0.8-2.9,1.2-5.5,1.2-7.7v-4.4v-1.8v-3.4
			c0-1.5-0.3-3.6-0.8-6.3c-0.5-2.7-1.9-5.5-4.2-8.1c-2.3-2.7-5.7-5-10.3-6.9c-4.6-1.9-10.9-2.9-18.9-2.9
			C26.1,41.2,19.8,42.2,15.3,44.1 M314,112.2v-1V68.5c0-1.5,0.3-2.9,0.8-4.3c0.5-1.4,1.4-2.7,2.7-3.9c1.3-1.2,3-2.2,5.2-2.9
			c2.2-0.7,5-1.1,8.4-1.1c3.2,0,5.9,0.3,8.1,1c2.2,0.7,4,1.6,5.2,2.8c1.3,1.2,2.2,2.6,2.8,4.2c0.6,1.6,1,3.3,1.1,5v41.8v1
			c0,2.5-0.5,4.7-1.4,6.3c-0.9,1.7-2,3.1-3.2,4.1c-1.5,1.2-3.1,2.1-4.8,2.8c-2.1,0.8-4.4,1.6-6.8,2.4c-2,0.7-4.2,1.4-6.4,2.3
			c-2.3,0.9-4.5,1.6-6.6,2.3c-1.1,0.3-2.1,0.7-3.1,1.4c-1,0.7-1.6,1.7-1.9,3.2V112.2z M305.3,48.1c-5.4,4.6-8.2,10.4-8.3,17.2v123.3
			H314v-25.8v-3.6c0-1.6,0.3-3,0.9-4.2c0.6-1.2,1.3-2.3,2.1-3.2c0.8-0.9,1.6-1.6,2.4-2.1c0.8-0.5,1.5-0.8,2-1.1
			c0.5-0.1,1.9-0.6,4-1.4c2.1-0.8,4.7-1.7,7.5-2.7c2.9-1,5.9-2,9-3.1c3.1-1.1,5.8-2,8.3-2.8c5-1.7,8.7-4.7,11.3-8.9
			c2.5-4.2,3.8-8.8,3.8-13.9v-4.6V70.4v-4.8c0-3.4-0.6-6.5-1.9-9.5c-1.3-2.9-3.3-5.5-6.1-7.7c-2.8-2.2-6.4-4-10.7-5.2
			c-4.3-1.3-9.5-1.9-15.5-1.9C319.3,41.2,310.7,43.5,305.3,48.1 M519.5,1.9v70.4c-0.7-0.3-1.4-0.5-2.2-0.7c-0.8-0.2-1.7-0.4-2.6-0.7
			c-2.7-0.9-5.6-2-8.8-3.1c-3.2-1.1-5.9-2.1-8.1-2.9c-0.8-0.3-1.6-0.5-2.4-0.8c-0.8-0.3-1.5-0.5-2.2-0.8c-3.5-1.2-5.7-2.9-6.6-5
			c-0.9-2.1-1.4-4.1-1.4-5.8v-0.2V1.9H468v48.7v4.8c0,4.8,1.6,9.4,4.7,13.8c3.1,4.4,8.6,7.6,16.2,9.8c0.3,0,0.7,0.1,1.2,0.4
			c2.3,0.8,4.8,1.7,7.5,2.6c2.7,0.9,5.2,1.7,7.3,2.4c0.9,0.4,2,0.8,3.3,1.3c1.3,0.5,2.2,0.8,2.9,1.1c3.5,1.2,5.7,2.9,6.7,5
			c1,2.1,1.5,4,1.5,5.6v2v48.3h17.1V1.9H519.5z M419.7,0.3c-8,0-14.4,1-18.9,2.9c-4.6,1.9-8,4.3-10.3,6.9c-2.3,2.7-3.7,5.4-4.2,8.1
			c-0.5,2.8-0.8,4.9-0.8,6.5v5h16.9v-2.2c0-1.2,0.2-2.5,0.6-3.9c0.4-1.4,1.2-2.7,2.5-3.9c1.3-1.2,3.1-2.2,5.4-3.1
			c2.3-0.9,5.4-1.3,9.2-1.3c3.8,0,6.7,0.4,9,1.3c2.2,0.9,3.9,2,5,3.3c1.1,1.3,1.9,2.7,2.2,4.1c0.3,1.4,0.5,2.7,0.5,3.9v1.8v20.7v1.8
			c0,1.7-0.5,3.7-1.4,5.8c-0.9,2.1-3.2,3.8-6.6,5c-0.5,0.3-1.2,0.5-2,0.8c-0.8,0.3-1.6,0.5-2.4,0.8c-2.4,0.8-5.2,1.8-8.3,2.9
			c-3.2,1.1-6.1,2.2-8.8,3.1c-2.5,0.5-4.8,1.3-6.8,2.4c-4.7,1.6-8.5,4.6-11.3,8.9c-2.1,3.2-3.4,6.7-3.6,10.5v1.4v0.6v4.8v36v12.3
			h68.4v-14.1h-12.7h-38.8V97.3c0.1-1.6,0.7-3.5,1.6-5.6c0.9-2.1,3.1-3.8,6.6-4.8c0.7-0.3,1.6-0.7,2.9-1.2c1.3-0.5,2.4-0.9,3.3-1.2
			c2.1-0.7,4.6-1.5,7.3-2.4c2.7-0.9,5.3-1.8,7.5-2.6c0.5-0.3,0.9-0.4,1.2-0.4c7.2-2,12.4-5,15.6-9c3.2-4,4.9-8.3,5.3-13v-1.6v-4.8
			V28.9v-4c0-1.5-0.3-3.6-0.8-6.3c-0.5-2.7-1.9-5.5-4.2-8.1c-2.3-2.7-5.7-5-10.3-7C434.1,1.3,427.8,0.3,419.7,0.3z"/>
	</defs>
	<clipPath id="SVGID_2_">
		<use xlink:href="#SVGID_1_"  style="overflow:visible;"/>
	</clipPath>
	
		<linearGradient id="SVGID_3_" gradientUnits="userSpaceOnUse" x1="-151.0084" y1="462.7347" x2="-149.7465" y2="462.7347" gradientTransform="matrix(465.6548 0 0 -465.6548 70317.7578 215570.0313)">
		<stop  offset="0" style="stop-color:#0097BC"/>
		<stop  offset="1.539837e-04" style="stop-color:#0096BF"/>
		<stop  offset="5.132935e-04" style="stop-color:#0094C5"/>
		<stop  offset="7.692310e-04" style="stop-color:#0093C6"/>
		<stop  offset="0.1675" style="stop-color:#009DC0"/>
		<stop  offset="0.4251" style="stop-color:#23ABB3"/>
		<stop  offset="0.6588" style="stop-color:#50B5A6"/>
		<stop  offset="0.8583" style="stop-color:#64BC9C"/>
		<stop  offset="1" style="stop-color:#6BBE98"/>
	</linearGradient>
	<rect x="0" y="0.3" class="st0" width="536.6" height="190.1"/>
</g>
</svg>
