<svg version="1.1" id="Layer_1" xmlns="http://www.w3.org/2000/svg" xmlns:xlink="http://www.w3.org/1999/xlink" x="0px" y="0px"
	 width="100%" viewBox="0 0 1000 500" enable-background="new 0 0 1300 400" xml:space="preserve">
<path fill="#FFFCFC" opacity="1.000000" stroke="none" 
	d="
M797.762939,229.548813 
	C815.781433,222.899261 832.694580,224.587662 848.744812,234.421005 
	C851.412231,227.778671 851.412231,227.783859 858.764160,227.790771 
	C863.927856,227.795624 869.106262,228.024216 874.250793,227.708054 
	C878.849976,227.425400 880.334106,229.143829 880.306946,233.718323 
	C880.146362,260.701782 880.227417,287.686707 880.226990,314.671143 
	C880.226929,321.500549 880.127014,328.331970 880.268188,335.158478 
	C880.339111,338.585907 878.872131,340.032867 875.546326,340.011597 
	C868.550781,339.966827 861.548767,339.812103 854.561157,340.048767 
	C849.620605,340.216064 850.276794,336.476685 849.626343,333.742645 
	C848.387146,332.895935 847.563904,333.688507 846.797058,334.210205 
	C822.036133,351.054504 783.038635,340.475372 769.126282,310.074371 
	C756.156982,281.734070 764.897522,243.945053 797.762939,229.548813 
M848.863098,290.442200 
	C848.856323,283.956909 848.796448,277.470978 848.869812,270.986603 
	C848.897766,268.516327 848.267456,266.407806 846.506897,264.658722 
	C838.159912,256.366272 828.188110,252.517303 816.552551,254.924362 
	C804.977661,257.318817 798.075867,265.045013 795.426697,276.353363 
	C792.522583,288.749512 795.556824,299.715210 805.754395,307.583588 
	C815.447632,315.062836 826.361572,315.258820 837.265869,309.987030 
	C844.928894,306.282227 850.598328,301.100220 848.863098,290.442200 
z"/>
<path fill="#000000" opacity="1.000000" stroke="none" 
	d="
M615.992126,341.328491 
	C587.057861,345.101532 562.097107,329.439606 553.578003,302.473114 
	C544.694458,274.353333 556.184265,244.135696 581.213562,231.420380 
	C597.690308,223.049973 614.542480,223.562851 631.139893,231.717850 
	C632.891235,232.578384 634.386353,234.074646 637.218872,233.977722 
	C636.554749,227.084503 641.277588,227.627304 645.978577,227.769745 
	C651.634460,227.941101 657.300903,227.892456 662.959900,227.786469 
	C666.165344,227.726425 667.373901,229.097122 667.369263,232.271255 
	C667.318848,266.737030 667.323975,301.202911 667.382996,335.668671 
	C667.388123,338.632141 666.194702,339.984344 663.291260,339.979553 
	C656.132019,339.967804 648.969360,339.838959 641.814636,340.017090 
	C636.739441,340.143463 638.088135,336.010651 636.966492,332.674255 
	C630.332153,336.480957 623.948608,340.378876 615.992126,341.328491 
M630.141602,306.657745 
	C635.179260,303.318481 637.210388,298.791260 636.707886,292.640747 
	C636.221558,286.688171 636.290466,280.645355 636.677063,274.678528 
	C637.094177,268.240173 634.371765,263.792572 629.173950,260.567261 
	C626.779663,259.081543 624.308228,257.652252 621.718872,256.559875 
	C606.618958,250.189667 590.838867,256.467285 584.274719,271.354950 
	C577.735596,286.185822 583.897400,303.979156 597.989075,310.581146 
	C609.172180,315.820465 619.651489,313.809143 630.141602,306.657745 
z"/>
<path fill="#000000" opacity="1.000000" stroke="none" 
	d="
M156.728912,319.200714 
	C140.068024,294.241943 143.483597,258.514160 163.998032,239.551071 
	C191.439026,214.185181 241.410858,222.665543 252.118698,268.468903 
	C253.308365,273.557861 253.431915,278.679718 253.386963,283.844269 
	C253.316315,291.957245 253.306671,292.024628 245.392136,292.033203 
	C225.075012,292.055237 204.757812,292.013214 184.440720,292.045898 
	C181.989838,292.049835 179.454041,291.577759 176.444794,293.076538 
	C177.944473,300.196228 181.088181,306.312042 187.062790,310.800751 
	C198.837204,319.646912 216.505997,318.662506 228.495865,307.866119 
	C232.509003,304.252441 234.788971,304.367249 238.063950,308.282593 
	C241.042847,311.843994 244.478912,315.052307 247.922409,318.186676 
	C250.742355,320.753510 250.302979,322.713837 247.753754,325.175903 
	C234.740631,337.744019 218.864899,342.837006 201.242233,342.009552 
	C183.320786,341.168060 167.985962,334.313538 156.728912,319.200714 
M215.506287,256.984772 
	C208.017242,250.021667 199.446426,249.305237 190.500854,253.301147 
	C184.282654,256.078766 179.633911,260.581451 178.253967,268.095825 
	C193.075912,268.095825 207.181183,268.095825 221.489365,268.095825 
	C220.642960,263.543365 218.727646,260.307220 215.506287,256.984772 
z"/>
<path fill="#000000" opacity="1.000000" stroke="none" 
	d="
M299.338226,331.919189 
	C299.311066,340.007690 299.311066,340.014465 291.584198,340.002472 
	C285.754303,339.993439 279.917114,339.777496 274.096832,340.004211 
	C269.584442,340.179932 267.974060,338.474548 268.005341,333.910126 
	C268.156067,311.924072 268.041748,289.936188 268.029236,267.948975 
	C268.022797,256.622223 268.195984,245.292023 267.958282,233.970306 
	C267.856903,229.141418 269.627167,227.435440 274.395660,227.740982 
	C279.537689,228.070465 284.718079,227.799255 289.881744,227.792679 
	C297.265045,227.783279 297.265045,227.784271 299.059448,235.012817 
	C305.772217,230.782089 312.704651,227.453064 320.577179,226.219559 
	C348.729156,221.808609 375.383514,240.298508 378.305756,268.777771 
	C380.606750,291.202484 378.795380,313.705505 379.345673,336.165436 
	C379.416870,339.071960 377.803284,339.964325 375.296539,339.961456 
	C367.634888,339.952637 359.973053,339.877319 352.311646,339.909454 
	C348.196533,339.926727 347.972046,337.223511 347.973724,334.164612 
	C347.983459,316.175049 347.984344,298.185394 347.922485,280.196014 
	C347.912231,277.207886 347.941254,274.144714 347.332062,271.246552 
	C344.706116,258.753448 333.661072,252.010101 320.399628,254.629456 
	C316.954865,255.309860 313.692169,256.554199 310.573059,258.174072 
	C302.959930,262.127838 298.627258,267.280273 299.095398,276.976288 
	C299.969971,295.089996 299.341278,313.276276 299.338226,331.919189 
z"/>
<path fill="#000000" opacity="1.000000" stroke="none" 
	d="
M462.314941,253.644165 
	C452.260773,253.966873 442.606415,254.269394 432.959442,254.114120 
	C428.582764,254.043671 427.109955,255.582169 427.162659,259.905548 
	C427.339203,274.393341 427.310028,288.885651 427.158417,303.374115 
	C427.117950,307.242981 428.465088,308.826782 432.379608,308.634399 
	C438.528687,308.332184 444.699463,308.454803 450.845673,308.117371 
	C455.158112,307.880676 457.365997,309.043457 457.149445,313.914734 
	C456.839050,320.895691 456.974945,327.904236 457.143188,334.895630 
	C457.231598,338.570129 455.653137,340.016693 452.109985,339.981598 
	C444.949097,339.910645 437.786133,339.902527 430.625732,339.998291 
	C426.893463,340.048187 425.715149,338.205353 425.776398,334.724457 
	C425.896484,327.898102 425.666077,321.064758 425.832458,314.240448 
	C425.922516,310.545654 424.472351,309.212311 420.821442,309.313232 
	C414.164551,309.497162 407.495636,309.233917 400.837860,309.401520 
	C397.182953,309.493530 395.807709,308.058411 395.814606,304.423553 
	C395.879700,270.113800 395.872528,235.803787 395.807404,201.494003 
	C395.800903,198.068008 397.150787,196.707352 400.553406,196.762024 
	C407.879761,196.879730 415.210663,196.875702 422.537048,196.757919 
	C426.030060,196.701752 427.261688,198.325958 427.223083,201.619934 
	C427.141174,208.614105 427.343475,215.613815 427.152710,222.603683 
	C427.045990,226.514633 428.582825,227.917099 432.440094,227.841614 
	C441.097443,227.672211 449.764008,227.945038 458.419769,227.739716 
	C462.540558,227.641983 464.299194,229.222366 463.966309,233.274857 
	C463.414948,239.987045 465.373352,246.854675 462.314941,253.644165 
z"/>
<path fill="#000000" opacity="1.000000" stroke="none" 
	d="
M688.609558,238.999878 
	C688.592407,226.168411 688.687378,213.835159 688.487000,201.506683 
	C688.430847,198.050888 689.470886,196.675888 692.981445,196.749878 
	C700.143799,196.900818 707.314270,196.908875 714.476135,196.745300 
	C718.239807,196.659348 719.427307,198.319214 719.349548,201.867172 
	C719.199829,208.696091 719.516235,215.538574 719.251709,222.360382 
	C719.086609,226.615845 720.838501,227.903717 724.834595,227.821960 
	C733.329773,227.648224 741.837097,227.962906 750.327271,227.693283 
	C754.845764,227.549774 756.202454,229.481461 756.045349,233.624420 
	C755.862366,238.450104 755.823486,243.296417 756.052429,248.118103 
	C756.263489,252.563232 754.692688,254.429901 750.021057,254.277390 
	C741.531372,254.000290 733.023010,254.336517 724.528625,254.143982 
	C720.623047,254.055450 719.246765,255.501648 719.285767,259.389252 
	C719.431152,273.885651 719.432983,288.385437 719.276489,302.881622 
	C719.234253,306.794922 720.674500,308.240601 724.533447,308.142609 
	C731.194397,307.973511 737.863647,308.166809 744.528687,308.115173 
	C747.820129,308.089722 749.366455,309.354828 749.292175,312.862762 
	C749.133545,320.358276 749.177246,327.860413 749.278748,335.357971 
	C749.321350,338.509369 748.005615,339.996063 744.866516,339.983795 
	C737.367981,339.954498 729.869019,339.912903 722.370972,339.972321 
	C718.845886,340.000275 717.764282,338.162964 717.814941,334.938446 
	C717.911743,328.774170 717.862183,322.607269 717.842407,316.441559 
	C717.819824,309.394165 717.805176,309.391205 710.511353,309.379852 
	C705.012146,309.371307 699.504761,309.187347 694.016357,309.428894 
	C689.930969,309.608734 688.512085,308.154541 688.543335,303.990143 
	C688.704590,282.494446 688.613220,260.996826 688.609558,238.999878 
z"/>
<path fill="#000000" opacity="1.000000" stroke="none" 
	d="
M551.189026,252.436966 
	C550.212463,257.700256 546.681580,255.251862 544.426880,254.887634 
	C536.979065,253.684509 529.844299,253.965225 523.036316,257.526855 
	C519.609375,259.319733 516.623291,261.674225 513.849182,264.353729 
	C511.182831,266.929138 509.980682,269.876312 510.005127,273.686951 
	C510.132202,293.513489 510.072052,313.341400 510.038177,333.168732 
	C510.027069,339.677521 509.724640,339.960815 503.294464,339.976562 
	C496.796661,339.992493 490.298096,339.876862 483.800934,339.935608 
	C480.340637,339.966949 478.684845,338.746368 478.693878,334.968781 
	C478.775818,300.812439 478.754089,266.655762 478.687744,232.499298 
	C478.681091,229.079697 480.031250,227.685806 483.442230,227.765305 
	C488.937408,227.893372 494.438110,227.790512 499.936462,227.777740 
	C507.990173,227.759033 507.990173,227.756226 509.460388,235.300034 
	C510.356293,235.949905 511.005219,235.317047 511.627197,234.825119 
	C521.472839,227.038376 532.883606,225.091705 545.041687,225.688736 
	C549.235596,225.894669 551.466003,227.309433 551.258606,232.010818 
	C550.965210,238.662109 551.197327,245.336624 551.189026,252.436966 
z"/>
</svg>