<?xml version="1.0" standalone="no"?>
<!DOCTYPE svg PUBLIC "-//W3C//DTD SVG 20010904//EN"
 "http://www.w3.org/TR/2001/REC-SVG-20010904/DTD/svg10.dtd">
<svg version="1.0" xmlns="http://www.w3.org/2000/svg"
 width="258.000000pt" height="258.000000pt" viewBox="0 0 258.000000 258.000000"
 preserveAspectRatio="xMidYMid meet">
<metadata>
Created by potrace 1.11, written by Peter Selinger 2001-2013
</metadata>
<g transform="translate(0.000000,258.000000) scale(0.100000,-0.100000)"
fill="#000000" stroke="none">
<path d="
M314.454102,100.000000 
	C309.165375,98.076401 303.970764,96.754295 299.563385,94.116776 
	C286.168365,86.100761 280.506104,73.456779 281.156982,58.361897 
	C281.818604,43.017231 288.645477,30.320108 303.160095,24.266209 
	C314.399841,19.578230 326.569214,18.097666 337.579956,26.400560 
	C338.428772,27.040623 339.688110,27.136307 340.850891,27.515781 
	C341.014099,25.857187 341.173370,24.238518 341.352570,22.417276 
	C347.805176,22.417276 354.068237,22.417276 360.650879,22.417276 
	C360.650879,47.547905 360.650879,72.559509 360.650879,98.044647 
	C355.140991,98.044647 349.676361,98.315117 344.269989,97.872948 
	C342.731750,97.747139 341.363037,95.548538 339.745819,94.153183 
	C335.401489,95.617065 329.893188,97.473167 324.192444,99.664635 
	C320.969391,100.000000 317.938812,100.000000 314.454102,100.000000 
M327.501099,80.142830 
	C337.459473,76.233643 340.924957,73.691658 339.941711,63.406223 
	C339.578949,59.611156 339.984497,55.748238 339.829529,51.924786 
	C339.772400,50.515240 339.457764,48.885059 338.671387,47.771645 
	C330.128754,35.676193 309.454102,37.420078 303.133087,50.787842 
	C299.327545,58.835835 299.880280,67.217697 305.419708,73.764290 
	C310.629303,79.921043 317.795959,84.123611 327.501099,80.142830 
z"/>
</g>
</svg>
