<?xml version="1.0" standalone="no"?>
<!DOCTYPE svg PUBLIC "-//W3C//DTD SVG 20010904//EN"
 "http://www.w3.org/TR/2001/REC-SVG-20010904/DTD/svg10.dtd">
<svg version="1.0" xmlns="http://www.w3.org/2000/svg"
 width="258.000000pt" height="258.000000pt" viewBox="0 0 258.000000 258.000000"
 preserveAspectRatio="xMidYMid meet">
<metadata>
Created by potrace 1.11, written by Peter Selinger 2001-2013
</metadata>
<g transform="translate(0.000000,258.000000) scale(0.100000,-0.100000)"
fill="#000000" stroke="none">
<path d="M1920 2548 c-97 -8 -167 -31 -236 -79 -137 -94 -210 -222 -222 -392
l-7 -88 -275 -140 -274 -140 -66 30 c-102 46 -210 58 -314 34 -242 -56 -400
-257 -395 -504 2 -94 27 -178 77 -255 77 -118 168 -183 307 -220 11 -3 54 -8
96 -11 85 -6 175 13 249 51 l45 24 275 -141 c151 -77 276 -140 276 -141 1 0 4
-37 7 -81 6 -81 7 -90 21 -135 39 -126 146 -246 270 -303 106 -49 261 -56 371
-18 153 54 275 182 321 337 36 121 14 295 -51 398 -45 73 -132 152 -208 189
-89 43 -146 56 -245 52 -162 -5 -307 -85 -397 -220 l-36 -54 -33 19 c-19 10
-125 64 -235 120 -111 55 -201 103 -201 105 0 2 13 25 30 52 39 64 63 161 63
253 -1 87 -21 162 -63 239 -17 30 -29 55 -28 55 2 1 13 6 25 13 139 77 448
224 451 215 8 -26 79 -111 121 -147 146 -121 331 -149 516 -79 169 64 297 246
309 437 3 51 0 78 -19 167 -12 61 -71 158 -131 216 -109 108 -240 156 -394
142z m206 -187 c141 -69 218 -248 175 -409 -15 -56 -75 -141 -126 -180 -100
-76 -250 -93 -360 -41 -108 51 -192 171 -202 290 -6 65 18 179 43 200 8 6 14
17 14 24 0 20 94 100 146 124 93 44 209 41 310 -8z m-1376 -748 c153 -51 252
-218 228 -382 -31 -207 -244 -346 -439 -287 -26 8 -61 22 -78 31 -52 26 -120
101 -149 162 -23 50 -27 71 -27 148 1 79 4 97 30 148 82 165 261 238 435 180z
m1339 -772 c264 -100 302 -463 66 -619 -65 -42 -114 -56 -201 -55 -59 0 -83 5
-135 30 -108 52 -166 122 -195 233 -71 277 197 513 465 411z"/>
<path d="M1769 2103 c-44 -11 -40 -84 5 -104 58 -27 106 59 54 95 -23 16 -30
17 -59 9z"/>
<path d="M1934 2100 c-54 -22 -21 -119 36 -105 50 12 65 60 30 95 -22 22 -33
23 -66 10z"/>
<path d="M2103 2098 c-29 -14 -37 -39 -22 -71 14 -31 32 -39 65 -31 45 11 57
61 24 94 -22 22 -35 24 -67 8z"/>
<path d="M572 1447 c-26 -28 -30 -88 -6 -111 15 -16 15 -47 -1 -126 -3 -14 -8
-46 -11 -72 l-6 -48 78 2 c44 0 82 2 85 4 3 2 -2 52 -12 111 -16 92 -17 109
-4 123 32 35 25 97 -14 127 -27 21 -85 16 -109 -10z"/>
<path d="M1756 557 c-21 -16 -24 -60 -6 -82 16 -20 64 -19 84 1 50 50 -21 123
-78 81z"/>
<path d="M1921 556 c-19 -22 -21 -52 -5 -75 29 -41 104 -16 104 36 0 43 -72
72 -99 39z"/>
<path d="M2089 554 c-19 -23 -20 -46 -3 -71 28 -44 104 -19 104 34 0 45 -72
71 -101 37z"/>
</g>
</svg>
