<?xml version="1.0" encoding="UTF-8" standalone="no"?>
<!-- Created with Inkscape (http://www.inkscape.org/) -->

<svg
   version="1.1"
   id="svg2"
   width="361.23877"
   height="127.81683"
   viewBox="0 0 361.23877 127.81683"
   sodipodi:docname="34883143ac17e96bdf357abe5613655f.ai"
   xmlns:inkscape="http://www.inkscape.org/namespaces/inkscape"
   xmlns:sodipodi="http://sodipodi.sourceforge.net/DTD/sodipodi-0.dtd"
   xmlns="http://www.w3.org/2000/svg"
   xmlns:svg="http://www.w3.org/2000/svg"><defs
     id="defs6"><clipPath
       clipPathUnits="userSpaceOnUse"
       id="clipPath16"><path
         d="M 0,300 H 300 V 0 H 0 Z"
         id="path14" /></clipPath></defs><sodipodi:namedview
     id="namedview4"
     pagecolor="#ffffff"
     bordercolor="#666666"
     borderopacity="1.0"
     inkscape:pageshadow="2"
     inkscape:pageopacity="0.0"
     inkscape:pagecheckerboard="0" /><g
     id="g8"
     inkscape:groupmode="layer"
     inkscape:label="34883143ac17e96bdf357abe5613655f"
     transform="matrix(1.3333333,0,0,-1.3333333,-18.813414,270.73263)"><g
       id="g10">
	   <svg preserveAspectRatio="xMidYMid meet" viewBox="0 0 12 7" fill="none" xmlns="http://www.w3.org/2000/svg">
	   </svg>
	   
	   <g
         id="g12"
         clip-path="url(#clipPath16)"><g
           id="g18"
           transform="translate(79.3994,166.8398)"><path
             d="m 0,0 c 0,-11.613 0,-23.227 0,-34.84 0,-1.215 -0.002,-1.217 -1.233,-1.217 -8.281,-10e-4 -16.561,-10e-4 -24.841,0 -1.228,0 -1.254,0.024 -1.254,1.232 -0.001,8.333 0,16.666 -0.001,24.999 0,1.214 -0.003,1.215 -1.233,1.215 -2.778,0.001 -5.556,0.002 -8.334,0 -1.037,-10e-4 -1.04,-0.005 -1.041,-1.072 -0.001,-8.386 0,-16.772 -0.001,-25.158 0,-1.214 -10e-4,-1.216 -1.235,-1.216 -8.281,-10e-4 -16.561,-10e-4 -24.841,0 -1.232,0.001 -1.25,0.018 -1.25,1.234 -0.001,23.253 -0.001,46.507 0,69.76 0,1.224 0.026,1.25 1.236,1.25 8.306,0.001 16.613,0.001 24.92,0 1.169,0 1.17,-0.004 1.17,-1.202 0.001,-7.17 0,-14.339 0.001,-21.507 10e-4,-1.097 0.004,-1.1 1.098,-1.101 2.83,-0.001 5.661,0.025 8.491,-0.016 0.814,-0.012 1.036,0.271 1.034,1.056 -0.025,7.143 -0.015,14.286 -0.014,21.428 0,1.339 0.002,1.342 1.303,1.342 8.28,0 16.56,0.001 24.84,-10e-4 C -0.004,36.186 0,36.183 0,34.999 0,23.333 0,11.667 0,0"
             style="fill:#004c82;fill-opacity:1;fill-rule:nonzero;stroke:none"
             id="path20" /></g><g
           id="g22"
           transform="translate(246.5176,166.9028)"><path
             d="m 0,0 c 0,-6.53 0.008,-13.06 -0.011,-19.589 -0.002,-0.698 0.185,-1.009 0.938,-0.985 1.585,0.051 3.174,-0.011 4.758,0.05 2.413,0.095 4.08,1.346 4.669,3.468 0.249,0.89 0.405,1.806 0.405,2.738 0.002,9.464 10e-4,18.928 0.007,28.392 0,0.905 -0.139,1.789 -0.341,2.666 C 9.963,18.752 8.729,19.974 6.698,20.374 4.891,20.73 3.062,20.516 1.242,20.559 0.004,20.588 0.001,20.562 0.001,19.352 0,12.901 0,6.451 0,0 M -27.005,0.038 V 34.87 c 10e-4,1.266 10e-4,1.268 1.275,1.267 13.039,-0.004 26.078,0.043 39.116,-0.04 4.755,-0.031 9.433,-0.733 13.812,-2.778 5.195,-2.425 8.315,-6.547 9.789,-11.998 0.778,-2.873 1.096,-5.816 1.102,-8.786 0.018,-8.516 0.051,-17.033 -0.013,-25.548 -0.03,-4.123 -0.643,-8.168 -2.424,-11.954 -1.976,-4.202 -5.209,-7.061 -9.467,-8.804 -3.289,-1.347 -6.737,-2.038 -10.267,-2.188 -9.462,-0.402 -18.931,-0.093 -28.397,-0.168 -4.443,-0.036 -8.886,-0.007 -13.33,-0.006 -1.191,0.001 -1.195,0.003 -1.195,1.179 -10e-4,11.664 0,23.328 -10e-4,34.992"
             style="fill:#004c82;fill-opacity:1;fill-rule:nonzero;stroke:none"
             id="path24" /></g><g
           id="g26"
           transform="translate(179.5049,189.5015)"><path
             d="M 0,0 H -0.095 C -0.11,-0.096 -0.128,-0.192 -0.144,-0.289 l -1.951,-11.808 c -1.12,-6.777 -2.236,-13.555 -3.367,-20.331 -0.101,-0.612 0.052,-0.883 0.715,-0.879 2.961,0.018 5.923,0.018 8.885,-10e-4 0.65,-0.004 0.832,0.249 0.733,0.869 -0.344,2.166 -0.661,4.335 -0.985,6.504 C 3.061,-20.422 2.238,-14.909 1.413,-9.396 0.944,-6.264 0.471,-3.132 0,0 m -0.358,13.525 c 5.872,0 11.744,-0.014 17.616,0.018 0.809,0.004 1.159,-0.251 1.358,-1.041 1.881,-7.432 3.796,-14.856 5.707,-22.281 3.302,-12.828 6.609,-25.654 9.911,-38.481 0.811,-3.15 1.618,-6.299 2.423,-9.449 0.241,-0.942 0.196,-1.007 -0.764,-1.008 -8.676,-0.002 -17.352,0.007 -26.028,-0.017 -0.752,-0.002 -1.011,0.299 -1.126,0.98 -0.518,3.047 -1.074,6.09 -1.605,9.136 -0.203,1.164 -0.191,1.169 -1.401,1.169 -4.152,10e-4 -8.305,-0.024 -12.458,0.022 -0.86,0.01 -1.2,-0.24 -1.338,-1.098 -0.495,-3.053 -1.087,-6.089 -1.594,-9.14 -0.133,-0.798 -0.446,-1.076 -1.283,-1.073 -8.65,0.031 -17.299,0.019 -25.948,0.02 -1.114,0 -1.149,0.058 -0.867,1.127 3.2,12.171 6.398,24.342 9.597,36.514 2.957,11.251 5.92,22.5 8.855,33.757 0.18,0.689 0.519,0.858 1.17,0.856 5.925,-0.017 11.85,-0.011 17.775,-0.011"
             style="fill:#004c82;fill-opacity:1;fill-rule:nonzero;stroke:none"
             id="path28" /></g><g
           id="g30"
           transform="translate(82.9912,166.9438)"><path
             d="m 0,0 v 34.836 c 0,1.245 0.001,1.247 1.211,1.247 17.828,0 35.655,0 53.483,0 1.227,0 1.228,-0.003 1.228,-1.229 0,-4.973 0,-9.945 0,-14.918 -10e-4,-1.171 -0.002,-1.175 -1.204,-1.175 -8.728,-10e-4 -17.457,0 -26.186,-10e-4 -1.211,0 -1.213,-0.002 -1.213,-1.241 -10e-4,-2.725 -10e-4,-5.449 0,-8.173 0.001,-1.196 0.003,-1.199 1.177,-1.199 7.908,-10e-4 15.817,-10e-4 23.726,-10e-4 1.328,0 1.329,-0.001 1.329,-1.361 0,-4.285 0,-8.57 0,-12.855 0,-1.359 -0.001,-1.361 -1.329,-1.361 -7.882,0 -15.764,0 -23.647,0 -1.254,0 -1.256,-0.002 -1.256,-1.278 -10e-4,-2.963 -10e-4,-5.925 0,-8.888 0.001,-1.238 0.003,-1.241 1.216,-1.241 8.702,-10e-4 17.404,0 26.107,-10e-4 1.278,0 1.279,-0.002 1.28,-1.253 0,-5 0.001,-9.999 -10e-4,-14.998 -10e-4,-1.038 -0.03,-1.07 -1.069,-1.07 -17.934,-0.002 -35.867,-0.002 -53.801,0 -1.025,0 -1.05,0.029 -1.05,1.086 C 0,-23.382 0,-11.691 0,0"
             style="fill:#004c82;fill-opacity:1;fill-rule:nonzero;stroke:none"
             id="path32" /></g><g
           id="g34"
           transform="translate(257.1094,113.0527)"><path
             d="m 0,0 v 3.237 c 0,3.809 0.02,7.618 -0.017,11.427 -0.007,0.808 0.256,1.126 1.048,1.028 0.235,-0.029 0.476,-0.015 0.713,-0.006 0.514,0.019 0.721,-0.238 0.694,-0.73 -0.01,-0.185 0,-0.37 0,-0.556 C 2.438,7.946 2.44,1.492 2.434,-4.962 2.433,-5.265 2.596,-5.722 2.303,-5.84 1.956,-5.979 1.749,-5.523 1.526,-5.291 -3.309,-0.258 -8.137,4.783 -12.959,9.828 c -0.197,0.206 -0.336,0.466 -0.533,0.745 -0.356,-0.48 -0.253,-0.806 -0.254,-1.106 -0.008,-4.55 -0.002,-9.099 -0.014,-13.649 -10e-4,-0.364 0.192,-0.908 -0.34,-1.014 -0.633,-0.128 -1.333,-0.241 -1.932,0.103 -0.29,0.167 -0.155,0.588 -0.155,0.896 -0.005,6.295 -0.004,12.591 -0.004,18.885 0,0.371 -0.01,0.742 0.003,1.112 0.005,0.173 -0.075,0.409 0.145,0.489 0.209,0.076 0.325,-0.136 0.447,-0.262 1.21,-1.257 2.413,-2.521 3.62,-3.781 C -8.226,8.333 -4.477,4.42 -0.722,0.512 -0.546,0.329 -0.415,0.076 0,0"
             style="fill:#004c82;fill-opacity:1;fill-rule:nonzero;stroke:none"
             id="path36" /></g><g
           id="g38"
           transform="translate(91.2612,118.3174)"><path
             d="m 0,0 c 0.002,-4.783 3.677,-8.498 8.392,-8.482 4.621,0.014 8.395,3.802 8.416,8.449 C 16.828,4.57 12.994,8.478 8.424,8.468 3.584,8.458 -0.178,4.467 0,0 M 19.243,-0.099 C 19.221,-6.065 14.317,-10.895 8.31,-10.866 2.3,-10.837 -2.564,-5.927 -2.542,0.089 -2.52,5.986 2.48,10.782 8.578,10.755 14.435,10.728 19.264,5.813 19.243,-0.099"
             style="fill:#004c82;fill-opacity:1;fill-rule:nonzero;stroke:none"
             id="path40" /></g><g
           id="g42"
           transform="translate(209.3604,118.2744)"><path
             d="m 0,0 c 0.002,-4.709 3.709,-8.445 8.374,-8.438 4.662,0.005 8.43,3.758 8.433,8.401 C 16.81,4.686 13.048,8.517 8.409,8.516 3.745,8.515 -0.003,4.719 0,0 M 19.247,-0.021 C 19.264,-5.956 14.443,-10.778 8.451,-10.823 2.514,-10.867 -2.493,-5.97 -2.545,-0.065 -2.597,5.773 2.387,10.789 8.247,10.798 c 6.169,0.008 10.982,-4.727 11,-10.819"
             style="fill:#004c82;fill-opacity:1;fill-rule:nonzero;stroke:none"
             id="path44" /></g><g
           id="g46"
           transform="translate(157.0078,120.9541)"><path
             d="m 0,0 c 0,-2.063 0.012,-4.126 -0.003,-6.189 -0.025,-3.495 -1.971,-6.057 -5.268,-6.97 -3.361,-0.93 -7.021,0.385 -8.709,3.138 -0.699,1.139 -0.956,2.417 -0.966,3.72 -0.033,4.417 -0.011,8.834 -0.03,13.251 -0.002,0.613 0.221,0.836 0.835,0.846 1.612,0.027 1.611,0.05 1.611,-1.564 10e-4,-3.729 -0.009,-7.459 0.009,-11.188 0.003,-0.79 0.072,-1.584 0.173,-2.369 0.085,-0.658 0.325,-1.276 0.715,-1.83 1.095,-1.555 3.485,-2.359 5.478,-1.833 2.162,0.571 3.34,1.945 3.604,4.105 0.114,0.925 0.11,1.846 0.111,2.771 0.003,3.649 0.017,7.3 -0.012,10.949 C -2.458,7.566 -2.214,7.809 -1.493,7.8 0,7.781 0,7.812 0,6.348 0.001,4.231 0.001,2.116 0,0"
             style="fill:#004c82;fill-opacity:1;fill-rule:nonzero;stroke:none"
             id="path48" /></g><g
           id="g50"
           transform="translate(71.1948,129.0752)"><path
             d="m 0,0 c 2.133,-0.006 3.816,-0.882 5.087,-2.594 0.35,-0.47 0.43,-0.837 -0.184,-1.121 -0.023,-0.011 -0.044,-0.028 -0.066,-0.043 -1.16,-0.775 -1.143,-0.76 -2.072,0.262 -0.974,1.071 -2.203,1.407 -3.603,1.078 -1.261,-0.297 -2.114,-1.046 -2.439,-2.33 -0.317,-1.251 0.224,-2.357 1.617,-3.104 0.977,-0.523 2.007,-0.947 3.018,-1.403 1.308,-0.59 2.623,-1.196 3.578,-2.295 2.153,-2.478 1.538,-6.628 -1.244,-8.714 -3.705,-2.777 -8.962,-1.106 -10.403,3.287 -0.216,0.66 -0.106,1.01 0.597,1.119 0.129,0.019 0.253,0.075 0.38,0.111 1.121,0.317 1.121,0.316 1.514,-0.787 0.718,-2.017 2.823,-3.13 4.911,-2.597 2.056,0.524 3.304,2.382 2.992,4.5 -0.183,1.246 -1.057,1.974 -2.074,2.547 -1.497,0.845 -3.151,1.369 -4.641,2.234 -2.938,1.704 -3.724,5.059 -1.782,7.649 C -3.829,-0.886 -1.895,-0.004 0,0"
             style="fill:#004c82;fill-opacity:1;fill-rule:nonzero;stroke:none"
             id="path52" /></g><g
           id="g54"
           transform="translate(278.8564,129.0771)"><path
             d="M 0,0 C 2.162,-0.038 3.855,-0.946 5.096,-2.726 5.39,-3.146 5.362,-3.44 4.901,-3.681 4.808,-3.729 4.723,-3.793 4.634,-3.851 3.578,-4.544 3.578,-4.544 2.764,-3.548 c -1.465,1.793 -4.606,1.615 -5.749,-0.325 -0.887,-1.504 -0.465,-2.994 1.211,-3.937 1.01,-0.569 2.099,-0.998 3.147,-1.503 0.619,-0.297 1.233,-0.605 1.835,-0.935 4.204,-2.308 3.494,-7.441 0.704,-9.777 -3.285,-2.75 -8.85,-1.962 -10.591,2.777 -0.383,1.041 -0.361,1.111 0.693,1.441 0.151,0.048 0.309,0.078 0.455,0.141 0.644,0.277 0.97,0.134 1.174,-0.609 0.47,-1.724 1.91,-2.871 3.527,-2.953 1.948,-0.096 3.477,0.774 4.188,2.385 0.754,1.707 0.228,3.443 -1.382,4.495 -1.069,0.698 -2.26,1.149 -3.423,1.656 -0.998,0.434 -1.964,0.932 -2.786,1.653 -2.602,2.281 -2.055,6.666 1.029,8.248 C -2.206,-0.278 -1.147,0.048 0,0"
             style="fill:#004c82;fill-opacity:1;fill-rule:nonzero;stroke:none"
             id="path56" /></g><g
           id="g58"
           transform="translate(173.3096,117.1143)"><path
             d="m 0,0 c 0,2.751 -0.022,5.502 0.014,8.253 0.01,0.761 -0.237,1.038 -1,1.002 -1.056,-0.05 -2.116,0.004 -3.173,-0.017 -0.619,-0.012 -0.909,0.198 -0.918,0.868 -0.02,1.521 -0.047,1.52 1.506,1.52 3.359,0 6.719,0.003 10.079,-0.002 0.986,-0.001 1,-0.026 1.001,-1.217 C 7.509,9.293 7.48,9.254 6.53,9.245 5.658,9.236 4.785,9.243 3.912,9.242 2.43,9.241 2.429,9.241 2.429,7.798 2.429,2.48 2.433,-2.837 2.421,-8.154 2.42,-8.523 2.624,-9.059 2.157,-9.221 1.537,-9.436 0.844,-9.438 0.216,-9.203 -0.099,-9.086 0.004,-8.693 0.004,-8.413 -0.002,-5.608 0,-2.805 0,0"
             style="fill:#004c82;fill-opacity:1;fill-rule:nonzero;stroke:none"
             id="path60" /></g><g
           id="g62"
           transform="translate(32.9922,117.0586)"><path
             d="m 0,0 c 0,2.723 0.001,5.445 -0.001,8.168 0,1.123 -0.003,1.125 -1.16,1.129 -1.005,0.004 -2.009,0.022 -3.013,-0.004 -0.654,-0.017 -0.923,0.266 -0.876,0.902 0.017,0.237 0.01,0.476 0.005,0.713 -0.013,0.521 0.212,0.776 0.756,0.775 3.701,-0.008 7.401,-0.006 11.101,-0.002 0.445,0 0.662,-0.167 0.701,-0.647 C 7.648,9.348 7.616,9.298 5.913,9.298 5.067,9.299 4.22,9.262 3.376,9.309 2.645,9.35 2.422,9.07 2.426,8.347 2.45,2.981 2.438,-2.385 2.438,-7.75 c 0,-1.569 0,-1.539 -1.564,-1.535 -0.719,10e-4 -0.891,0.301 -0.885,0.96 C 0.015,-5.551 0,-2.775 0,0"
             style="fill:#004c82;fill-opacity:1;fill-rule:nonzero;stroke:none"
             id="path64" /></g><g
           id="g66"
           transform="translate(122.6743,118.2959)"><path
             d="m 0,0 c 0,3.092 -0.001,6.183 0,9.274 0.001,1.17 0.003,1.17 1.205,1.17 0.079,0 0.159,-0.007 0.237,0.002 0.744,0.092 1.03,-0.201 1.012,-0.977 C 2.409,7.567 2.439,5.664 2.439,3.762 2.439,0.115 2.456,-3.531 2.426,-7.178 2.42,-7.897 2.635,-8.165 3.371,-8.14 c 1.319,0.047 2.642,-0.005 3.962,0.02 0.618,0.012 0.827,-0.236 0.831,-0.847 0.01,-1.545 0.033,-1.544 -1.476,-1.544 -1.929,10e-4 -3.858,0.021 -5.786,-0.01 -0.69,-0.009 -0.919,0.244 -0.914,0.929 C 0.015,-6.395 0,-3.197 0,0"
             style="fill:#004c82;fill-opacity:1;fill-rule:nonzero;stroke:none"
             id="path68" /></g><g
           id="g70"
           transform="translate(14.1172,118.3398)"><path
             d="m 0,0 c 0,3.038 0,6.076 0,9.114 0.001,1.292 0.002,1.292 1.329,1.287 h 0.079 c 1.07,-0.006 1.131,-0.058 1.132,-1.11 0.004,-3.302 0.002,-6.604 0.002,-9.906 0,-2.854 0,-5.707 0,-8.56 -10e-4,-1.388 -0.002,-1.388 -1.421,-1.379 -0.079,0 -0.159,0.006 -0.238,0 -0.64,-0.05 -0.897,0.238 -0.89,0.885 C 0.016,-7.687 0,-5.706 0,-3.725 Z"
             style="fill:#004c82;fill-opacity:1;fill-rule:nonzero;stroke:none"
             id="path72" /></g><g
           id="g74"
           transform="translate(192.2119,118.3398)"><path
             d="m 0,0 c 0,3.038 -0.001,6.076 0,9.114 0,1.292 0.002,1.292 1.329,1.287 0.026,0 0.053,0 0.079,-10e-4 1.075,-0.007 1.132,-0.054 1.133,-1.108 0.004,-3.25 0.002,-6.499 0.002,-9.749 0,-2.933 10e-4,-5.864 -0.001,-8.797 0,-1.299 -0.008,-1.304 -1.342,-1.301 -0.105,10e-4 -0.212,0.008 -0.316,0 -0.637,-0.045 -0.899,0.234 -0.892,0.886 C 0.016,-7.583 0,-5.495 0,-3.408 Z"
             style="fill:#004c82;fill-opacity:1;fill-rule:nonzero;stroke:none"
             id="path76" /></g></g></g></g></svg>
