<svg version="1.1" id="Layer_1" xmlns="http://www.w3.org/2000/svg" xmlns:xlink="http://www.w3.org/1999/xlink" x="0px" y="0px"
	 width="100%" viewBox="0 0 100 50" enable-background="new 0 0 225 65" xml:space="preserve">
<path fill="#FFFCFC" opacity="1.000000" stroke="none" 
	d="
M1.000000,53.000000 
	C1.000000,35.700432 1.000000,18.400862 1.000000,1.000000 
	C58.354191,1.000000 115.708435,1.000000 173.510010,1.468238 
	C173.955627,25.715614 173.932434,49.494812 173.999390,73.273758 
	C174.003967,74.902000 174.683578,76.528336 175.499390,78.284058 
	C181.622787,78.328491 187.296051,78.244431 193.262558,78.216843 
	C193.718231,78.158180 193.880646,78.043037 194.041138,78.401093 
	C194.085022,84.017586 194.016953,89.166267 194.258957,94.300316 
	C194.317383,95.539635 195.401550,96.730606 196.475922,97.987335 
	C202.572784,97.763512 208.207733,97.496162 213.694244,97.235855 
	C213.694244,90.925728 213.694244,85.497971 213.600281,79.709511 
	C212.017242,79.044807 210.537338,78.542297 209.037399,78.473045 
	C204.011597,78.240982 198.978638,78.163643 194.056213,77.566452 
	C194.123077,64.731354 194.082123,52.356853 194.193756,39.804897 
	C194.567566,39.407356 194.789780,39.188259 195.479340,39.008598 
	C202.660004,39.051781 209.376511,39.144035 216.086273,38.972565 
	C217.167435,38.944935 218.218552,37.742294 219.453751,36.640865 
	C219.623947,31.604662 219.623947,27.010408 219.623947,21.876513 
	C210.901428,21.876513 202.704102,21.876513 194.000000,21.876513 
	C194.000000,14.553757 194.000000,7.776878 194.000000,1.000000 
	C254.354233,1.000000 314.708466,1.000000 375.452698,1.462990 
	C375.909912,27.277302 375.977142,52.628620 376.218872,78.377151 
	C382.930786,78.849609 389.468201,78.924850 396.043549,79.463837 
	C396.081451,85.853882 396.081451,91.780174 396.081451,97.692184 
	C403.005402,97.692184 409.367676,97.692184 415.673462,97.692184 
	C415.673462,91.236214 415.673462,85.143509 415.673462,79.096176 
	C408.919678,79.096176 402.412018,79.096176 395.936676,78.622490 
	C395.968994,65.401947 395.968994,52.655090 395.968994,39.405006 
	C403.137390,39.405006 409.914948,39.562199 416.674255,39.281017 
	C418.140961,39.220005 420.679901,37.694164 420.778290,36.658150 
	C421.224426,31.959900 420.973572,27.195459 420.973572,21.924629 
	C412.301544,21.924629 404.273285,21.924629 396.000000,21.924629 
	C396.000000,14.587388 396.000000,7.793694 396.000000,1.000000 
	C433.209961,1.000000 470.419952,1.000000 508.000000,1.000000 
	C508.000000,7.682841 508.000000,14.372508 507.539154,21.622555 
	C500.802063,22.182934 494.525818,22.182934 488.134094,22.182934 
	C487.990448,24.410210 487.890564,25.958895 487.789459,27.526604 
	C486.559357,27.152960 485.398834,27.132971 484.735657,26.548578 
	C476.190186,19.018732 465.842987,20.228235 456.280914,22.118814 
	C438.957794,25.543865 427.481628,42.611275 428.046417,61.824764 
	C428.585876,80.176651 441.180878,95.590286 458.420471,99.040039 
	C459.308777,99.217789 460.141449,99.673630 461.000000,100.000000 
	C415.645782,100.000000 370.291534,100.000000 324.661072,99.664635 
	C329.893188,97.473167 335.401489,95.617065 339.745819,94.153183 
	C341.363037,95.548538 342.731750,97.747139 344.269989,97.872948 
	C349.676361,98.315117 355.140991,98.044647 360.650879,98.044647 
	C360.650879,72.559509 360.650879,47.547905 360.650879,22.417276 
	C354.068237,22.417276 347.805176,22.417276 341.352570,22.417276 
	C341.173370,24.238518 341.014099,25.857187 340.850891,27.515781 
	C339.688110,27.136307 338.428772,27.040623 337.579956,26.400560 
	C326.569214,18.097666 314.399841,19.578230 303.160095,24.266209 
	C288.645477,30.320108 281.818604,43.017231 281.156982,58.361897 
	C280.506104,73.456779 286.168365,86.100761 299.563385,94.116776 
	C303.970764,96.754295 309.165375,98.076401 314.000000,100.000000 
	C224.979111,100.000000 135.958206,100.000000 46.489738,99.788895 
	C46.042156,99.577782 46.105217,99.158165 46.514488,99.104248 
	C57.072472,98.123535 65.535492,93.931206 72.881264,85.943619 
	C68.558952,82.048248 64.613319,78.492355 61.718246,75.883255 
	C55.028370,78.854660 49.506268,83.026810 43.662125,83.541382 
	C31.884045,84.578400 24.404715,77.655060 21.505497,65.158813 
	C38.020981,65.070694 54.075489,65.056068 70.129997,65.036423 
	C72.203949,65.033890 74.791405,65.659973 74.153488,61.556053 
	C74.975273,46.529358 69.349693,34.987545 57.648663,26.289759 
	C49.458679,20.201851 39.851101,20.064745 30.762337,21.528795 
	C16.351385,23.850164 7.613157,33.574375 3.062690,47.202629 
	C2.413199,49.147800 1.689406,51.068157 1.000000,53.000000 
M251.232239,50.545006 
	C251.217590,50.378670 251.202927,50.212334 251.685776,49.615692 
	C258.580048,39.370430 268.329773,37.395500 279.623230,40.330414 
	C279.623230,33.719040 279.623230,27.482615 279.623230,20.913170 
	C269.201569,21.160757 258.932556,20.359081 250.123581,30.249174 
	C251.706314,22.055355 247.842911,21.536034 242.927689,21.942341 
	C239.294693,22.242657 235.625214,22.101770 231.136520,22.403248 
	C231.069733,46.622166 230.979980,70.841125 231.022125,95.059853 
	C231.023758,96.006348 232.287460,96.950645 233.887482,98.079132 
	C239.267242,98.020836 244.647003,97.962540 250.620255,97.932610 
	C250.767761,97.614296 250.915268,97.295975 251.302353,96.069077 
	C251.225021,81.052414 251.147705,66.035751 251.232239,50.545006 
M106.592766,48.604195 
	C112.610794,41.458843 120.236206,38.312241 129.447617,40.141708 
	C136.808243,41.603592 139.577118,47.350101 140.903427,54.933449 
	C140.902786,67.827377 140.867950,80.721527 140.949203,93.614944 
	C140.958313,95.058456 141.625687,96.497818 142.911026,98.114395 
	C148.613647,98.054405 154.316284,97.994415 160.621170,97.962357 
	C160.767578,97.634407 160.914001,97.306450 161.301697,96.070190 
	C161.216217,83.052094 161.130722,70.033997 161.174927,56.190140 
	C161.084259,54.804104 160.993591,53.418064 161.020996,51.220993 
	C160.350021,39.143734 153.573380,30.597530 143.813553,24.913559 
	C131.082703,17.499296 118.059319,18.976297 105.603760,27.505461 
	C105.370522,25.296946 105.216988,23.843128 104.984146,21.638346 
	C98.630394,22.105316 92.353889,22.566608 85.904839,23.947643 
	C85.897392,47.169861` 85.870262,70.392128 85.929878,93.614174 
	C85.933571,95.055511 86.618973,96.495102 87.910126,98.113037 
	C93.611023,98.053856 99.311913,97.994675 105.860931,97.679321 
	C105.930176,81.456413 105.999420,65.233498 106.592766,48.604195 
z"/>
<path fill="#E42228" opacity="1.000000" stroke="none" 
	d="
M314.454102,100.000000 
	C309.165375,98.076401 303.970764,96.754295 299.563385,94.116776 
	C286.168365,86.100761 280.506104,73.456779 281.156982,58.361897 
	C281.818604,43.017231 288.645477,30.320108 303.160095,24.266209 
	C314.399841,19.578230 326.569214,18.097666 337.579956,26.400560 
	C338.428772,27.040623 339.688110,27.136307 340.850891,27.515781 
	C341.014099,25.857187 341.173370,24.238518 341.352570,22.417276 
	C347.805176,22.417276 354.068237,22.417276 360.650879,22.417276 
	C360.650879,47.547905 360.650879,72.559509 360.650879,98.044647 
	C355.140991,98.044647 349.676361,98.315117 344.269989,97.872948 
	C342.731750,97.747139 341.363037,95.548538 339.745819,94.153183 
	C335.401489,95.617065 329.893188,97.473167 324.192444,99.664635 
	C320.969391,100.000000 317.938812,100.000000 314.454102,100.000000 
M327.501099,80.142830 
	C337.459473,76.233643 340.924957,73.691658 339.941711,63.406223 
	C339.578949,59.611156 339.984497,55.748238 339.829529,51.924786 
	C339.772400,50.515240 339.457764,48.885059 338.671387,47.771645 
	C330.128754,35.676193 309.454102,37.420078 303.133087,50.787842 
	C299.327545,58.835835 299.880280,67.217697 305.419708,73.764290 
	C310.629303,79.921043 317.795959,84.123611 327.501099,80.142830 
z"/>
<path fill="#E42228" opacity="1.000000" stroke="none" 
	d="
M461.399994,100.000000 
	C460.141449,99.673630 459.308777,99.217789 458.420471,99.040039 
	C441.180878,95.590286 428.585876,80.176651 428.046417,61.824764 
	C427.481628,42.611275 438.957794,25.543865 456.280914,22.118814 
	C465.842987,20.228235 476.190186,19.018732 484.735657,26.548578 
	C485.398834,27.132971 486.559357,27.152960 487.789459,27.526604 
	C487.890564,25.958895 487.990448,24.410210 488.134094,22.182934 
	C494.525818,22.182934 500.802063,22.182934 507.539154,22.091467 
	C508.000000,22.444445 508.000000,22.888889 507.705994,23.962553 
	C507.283936,25.235830 507.044525,25.879780 507.043915,26.523960 
	C507.022217,48.788193 507.007568,71.052490 507.062531,93.316597 
	C507.065552,94.545158 507.673584,95.772232 508.000000,97.000000 
	C508.000000,97.000000 508.000000,97.500000 507.531677,97.755692 
	C502.734802,98.016418 498.393433,97.816422 494.081635,98.087456 
	C490.216370,98.330414 487.246277,97.861374 487.596771,93.646683 
	C481.876312,95.836494 476.438171,97.918251 471.000000,100.000000 
	C471.000000,100.000000 470.500000,100.000000 470.032593,99.719719 
	C468.043488,99.626297 466.521729,99.813148 465.000000,100.000000 
	C463.933319,100.000000 462.866669,100.000000 461.399994,100.000000 
M450.580841,70.807472 
	C453.182526,77.805191 459.712158,80.861580 465.709839,81.527939 
	C472.999512,82.337822 480.336700,79.351662 485.491089,73.184959 
	C487.718018,70.520638 487.531464,49.721939 485.201843,47.211494 
	C479.000092,40.528389 471.126282,38.320621 462.511169,40.345631 
	C454.730286,42.174553 449.716461,47.844315 448.638214,55.628120 
	C447.989471,60.311241 449.582306,65.304878 450.580841,70.807472 
z"/>
<path fill="#E42329" opacity="1.000000" stroke="none" 
	d="
M1.000000,53.250000 
	C1.689406,51.068157 2.413199,49.147800 3.062690,47.202629 
	C7.613157,33.574375 16.351385,23.850164 30.762337,21.528795 
	C39.851101,20.064745 49.458679,20.201851 57.648663,26.289759 
	C69.349693,34.987545 74.975273,46.529358 73.835732,61.784744 
	C71.569153,62.969303 69.772461,63.912937 67.967552,63.928928 
	C53.998459,64.052696 40.027493,63.955814 26.057961,64.051590 
	C24.384199,64.063065 22.715544,64.819572 21.044521,65.230759 
	C24.404715,77.655060 31.884045,84.578400 43.662125,83.541382 
	C49.506268,83.026810 55.028370,78.854660 61.718246,75.883255 
	C64.613319,78.492355 68.558952,82.048248 72.881264,85.943619 
	C65.535492,93.931206 57.072472,98.123535 46.137901,99.045586 
	C44.594307,99.070442 43.836578,99.100052 42.665955,99.081619 
	C41.142799,99.063339 40.032536,99.093102 38.551498,99.087158 
	C37.120480,99.367638 36.060238,99.683815 35.000000,100.000000 
	C35.000000,100.000000 34.500000,100.000000 34.116978,99.644310 
	C19.156874,96.381035 8.477163,88.720184 3.357547,74.319756 
	C2.499265,71.905586 1.782276,69.441193 1.000001,67.000000 
	C1.000000,66.250000 1.000000,65.500000 1.311163,64.113449 
	C1.414884,60.317928 1.207442,57.158966 1.000000,54.000000 
	C1.000000,54.000000 1.000000,53.500000 1.000000,53.250000 
M43.229893,37.977348 
	C33.347679,35.310062 24.344866,40.487576 22.474787,49.976891 
	C32.697437,49.976891 42.901917,49.976891 53.319546,49.976891 
	C52.452572,43.896545 48.885010,40.506767 43.229893,37.977348 
z"/>
<path fill="#E42328" opacity="1.000000" stroke="none" 
	d="
M395.531738,1.000000 
	C396.000000,7.793694 396.000000,14.587388 396.000000,21.924629 
	C404.273285,21.924629 412.301544,21.924629 420.973572,21.924629 
	C420.973572,27.195459 421.224426,31.959900 420.778290,36.658150 
	C420.679901,37.694164 418.140961,39.220005 416.674255,39.281017 
	C409.914948,39.562199 403.137390,39.405006 395.968994,39.405006 
	C395.968994,52.655090 395.968994,65.401947 395.964111,78.600670 
	C395.959198,79.052536 396.005646,79.000092 396.005646,79.000092 
	C389.468201,78.924850 382.930786,78.849609 376.512817,78.082855 
	C376.755707,75.744690 376.984985,74.098129 376.986542,72.451355 
	C377.008972,48.634254 377.000824,24.817123 377.000000,1.000000 
	C383.021149,1.000000 389.042297,1.000000 395.531738,1.000000 
z"/>
<path fill="#E42228" opacity="1.000000" stroke="none" 
	d="
M192.969299,78.160370 
	C187.296051,78.244431 181.622787,78.328491 175.490631,77.804352 
	C175.021149,51.797443 175.010574,26.398722 175.000000,1.000000 
	C181.021149,1.000000 187.042297,1.000000 193.531723,1.000000 
	C194.000000,7.776878 194.000000,14.553757 194.000000,21.876513 
	C202.704102,21.876513 210.901428,21.876513 219.623947,21.876513 
	C219.623947,27.010408 219.623947,31.604662 219.092819,36.727352 
	C214.439957,37.503231 210.315430,37.711895 206.197327,38.009579 
	C202.465561,38.279331 198.740799,38.646133 195.012955,38.970150 
	C194.789780,39.188259 194.567566,39.407356 193.883270,40.089432 
	C193.269913,53.087742 193.119614,65.624062 192.969299,78.160370 
z"/>
<path fill="#FFFCFC" opacity="1.000000" stroke="none" 
	d="
M1.000001,67.468658 
	C1.782276,69.441193 2.499265,71.905586 3.357547,74.319756 
	C8.477163,88.720184 19.156874,96.381035 33.866978,99.644310 
	C23.073441,100.000000 12.146883,100.000000 1.000000,100.000000 
	C1.000000,89.313446 1.000000,78.625381 1.000001,67.468658 
z"/>
<path fill="#FEF4F4" opacity="1.000000" stroke="none" 
	d="
M471.468658,100.000000 
	C476.438171,97.918251 481.876312,95.836494 487.596771,93.646683 
	C487.246277,97.861374 490.216370,98.330414 494.081635,98.087456 
	C498.393433,97.816422 502.734802,98.016418 507.531677,98.005692 
	C508.607727,101.004745 506.329254,99.962074 505.056641,99.968399 
	C494.017090,100.023209 482.977142,100.000000 471.468658,100.000000 
z"/>
<path fill="#E20000" opacity="1.000000" stroke="none" 
	d="
M174.750000,1.000000 
	C175.010574,26.398722 175.021149,51.797443 175.040497,77.675865 
	C174.683578,76.528336 174.003967,74.902000 173.999390,73.273758 
	C173.932434,49.494812 173.955627,25.715614 173.978668,1.468238 
	C174.000000,1.000000 174.500000,1.000000 174.750000,1.000000 
z"/>
<path fill="#E3000D" opacity="1.000000" stroke="none" 
	d="
M376.750000,1.000000 
	C377.000824,24.817123 377.008972,48.634254 376.986542,72.451355 
	C376.984985,74.098129 376.755707,75.744690 376.338348,77.685646 
	C375.977142,52.628620 375.909912,27.277302 375.921356,1.462990 
	C376.000000,1.000000 376.500000,1.000000 376.750000,1.000000 
z"/>
<path fill="#E74348" opacity="1.000000" stroke="none" 
	d="
M508.000000,96.531342 
	C507.673584,95.772232 507.065552,94.545158 507.062531,93.316597 
	C507.007568,71.052490 507.022217,48.788193 507.043915,26.523960 
	C507.044525,25.879780 507.283936,25.235830 507.705994,24.295887 
	C508.000000,48.020893 508.000000,72.041786 508.000000,96.531342 
z"/>
<path fill="#E8484D" opacity="1.000000" stroke="none" 
	d="
M1.000000,54.454109 
	C1.207442,57.158966 1.414884,60.317928 1.311163,63.738449 
	C1.000000,60.969406 1.000000,57.938812 1.000000,54.454109 
z"/>
<path fill="#E74348" opacity="1.000000" stroke="none" 
	d="
M465.416656,100.000000 
	C466.521729,99.813148 468.043488,99.626297 469.782593,99.719719 
	C468.611115,100.000000 467.222198,100.000000 465.416656,100.000000 
z"/>
<path fill="#F19B9D" opacity="1.000000" stroke="none" 
	d="
M35.400009,100.000000 
	C36.060238,99.683815 37.120480,99.367638 38.584618,99.304779 
	C38.988510,99.558113 39.000000,100.000000 39.000000,100.000000 
	C37.933342,100.000000 36.866680,100.000000 35.400009,100.000000 
z"/>
<path fill="#EB696C" opacity="1.000000" stroke="none" 
	d="
M39.400097,100.000000 
	C39.000000,100.000000 38.988510,99.558113 38.955391,99.340485 
	C40.032536,99.093102 41.142799,99.063339 42.634018,99.297539 
	C43.014977,99.561501 43.000000,100.000000 43.000000,100.000000 
	C41.933399,100.000000 40.866795,100.000000 39.400097,100.000000 
z"/>
<path fill="#F19B9D" opacity="1.000000" stroke="none" 
	d="
M43.375000,100.000000 
	C43.000000,100.000000 43.014977,99.561501 43.046913,99.345581 
	C43.836578,99.100052 44.594307,99.070442 45.728630,99.099503 
	C46.105217,99.158165 46.042156,99.577782 46.021080,99.788895 
	C45.250000,100.000000 44.500000,100.000000 43.375000,100.000000 
z"/>
<path fill="#E42228" opacity="1.000000" stroke="none" 
	d="
M140.998535,54.000443 
	C139.577118,47.350101 136.808243,41.603592 129.447617,40.141708 
	C120.236206,38.312241 112.610794,41.458843 106.012161,49.081139 
	C105.287415,51.032036 105.020805,52.505772 105.018112,53.979988 
	C104.991386,68.631783 105.008255,83.283653 105.012810,97.935501 
	C99.311913,97.994675 93.611023,98.053856 87.461517,97.559982 
	C87.008904,74.080475 87.024811,51.153973 86.961082,28.227695 
	C86.956261,26.493626 86.385223,24.761129 86.077385,23.027901 
	C92.353889,22.566608 98.630394,22.105316 104.984146,21.638346 
	C105.216988,23.843128 105.370522,25.296946 105.603760,27.505461 
	C118.059319,18.976297 131.082703,17.499296 143.813553,24.913559 
	C153.573380,30.597530 160.350021,39.143734 160.701904,51.864143 
	C160.603638,54.010162 160.824432,55.513031 161.045227,57.015900 
	C161.130722,70.033997 161.216217,83.052094 160.953857,96.620834 
	C160.296570,97.338264 160.100876,97.592575 160.018906,97.934425 
	C154.316284,97.994415 148.613647,98.054405 142.462784,97.562241 
	C142.010696,84.393089 142.044846,71.775841 141.958466,59.159416 
	C141.946671,57.437649 141.333344,55.720001 140.998535,54.000443 
z"/>
<path fill="#E42228" opacity="1.000000" stroke="none" 
	d="
M231.972000,22.157448 
	C235.625214,22.101770 239.294693,22.242657 242.927689,21.942341 
	C247.842911,21.536034 251.706314,22.055355 250.123581,30.249174 
	C258.932556,20.359081 269.201569,21.160757 279.623230,20.913170 
	C279.623230,27.482615 279.623230,33.719040 279.623230,40.330414 
	C268.329773,37.395500 258.580048,39.370430 251.250885,49.903610 
	C250.724213,50.285431 250.543945,50.450195 250.553925,50.462643 
	C250.711670,50.659657 250.893829,50.837139 251.070389,51.019089 
	C251.147705,66.035751 251.225021,81.052414 250.958511,96.616196 
	C250.308319,97.322701 250.112350,97.569679 250.026764,97.904243 
	C244.647003,97.962540 239.267242,98.020836 233.257507,97.612198 
	C232.419388,95.192963 232.034470,93.241081 232.030045,91.288322 
	C231.977737,68.244766 231.982361,45.201092 231.972000,22.157448 
z"/>
<path fill="#E4242A" opacity="1.000000" stroke="none" 
	d="
M395.931763,79.074356 
	C402.412018,79.096176 408.919678,79.096176 415.673462,79.096176 
	C415.673462,85.143509 415.673462,91.236214 415.673462,97.692184 
	C409.367676,97.692184 403.005402,97.692184 396.081451,97.692184 
	C396.081451,91.780174 396.081451,85.853882 396.043549,79.463837 
	C396.005646,79.000092 395.959198,79.052536 395.931763,79.074356 
z"/>
<path fill="#E42127" opacity="1.000000" stroke="none" 
	d="
M213.694244,80.070206 
	C213.694244,85.497971 213.694244,90.925728 213.694244,97.235855 
	C208.207733,97.496162 202.572784,97.763512 196.432861,97.524399 
	C195.927887,91.606506 195.927887,86.195076 195.927887,80.070206 
	C202.214432,80.070206 207.954330,80.070206 213.694244,80.070206 
z"/>
<path fill="#E20003" opacity="1.000000" stroke="none" 
	d="
M231.554260,22.280348 
	C231.982361,45.201092 231.977737,68.244766 232.030045,91.288322 
	C232.034470,93.241081 232.419388,95.192963 232.795319,97.520615 
	C232.287460,96.950645 231.023758,96.006348 231.022125,95.059853 
	C230.979980,70.841125 231.069733,46.622166 231.554260,22.280348 
z"/>
<path fill="#E8484D" opacity="1.000000" stroke="none" 
	d="
M213.600281,79.709511 
	C207.954330,80.070206 202.214432,80.070206 195.927887,80.070206 
	C195.927887,86.195076 195.927887,91.606506 195.970947,97.480873 
	C195.401550,96.730606 194.317383,95.539635 194.258957,94.300316 
	C194.016953,89.166267 194.085022,84.017586 194.034393,78.442047 
	C194.029572,78.009819 193.948425,78.027061 193.948425,78.027061 
	C198.978638,78.163643 204.011597,78.240982 209.037399,78.473045 
	C210.537338,78.542297 212.017242,79.044807 213.600281,79.709511 
z"/>
<path fill="#E30005" opacity="1.000000" stroke="none" 
	d="
M85.991112,23.487774 
	C86.385223,24.761129 86.956261,26.493626 86.961082,28.227695 
	C87.024811,51.153973 87.008904,74.080475 87.000061,97.471207 
	C86.618973,96.495102 85.933571,95.055511 85.929878,93.614174 
	C85.870262,70.392128 85.897392,47.169861 85.991112,23.487774 
z"/>
<path fill="#E20000" opacity="1.000000" stroke="none" 
	d="
M21.505497,65.158813 
	C22.715544,64.819572 24.384199,64.063065 26.057961,64.051590 
	C40.027493,63.955814 53.998459,64.052696 67.967552,63.928928 
	C69.772461,63.912937 71.569153,62.969303 73.687408,62.226685 
	C74.791405,65.659973 72.203949,65.033890 70.129997,65.036423 
	C54.075489,65.056068 38.020981,65.070694 21.505497,65.158813 
z"/>
<path fill="#E30005" opacity="1.000000" stroke="none" 
	d="
M105.436874,97.807411 
	C105.008255,83.283653 104.991386,68.631783 105.018112,53.979988 
	C105.020805,52.505772 105.287415,51.032036 105.750107,49.284332 
	C105.999420,65.233498 105.930176,81.456413 105.436874,97.807411 
z"/>
<path fill="#E20003" opacity="1.000000" stroke="none" 
	d="
M140.950974,54.466946 
	C141.333344,55.720001 141.946671,57.437649 141.958466,59.159416 
	C142.044846,71.775841 142.010696,84.393089 142.001160,97.474594 
	C141.625687,96.497818 140.958313,95.058456 140.949203,93.614944 
	C140.867950,80.721527 140.902786,67.827377 140.950974,54.466946 
z"/>
<path fill="#E30510" opacity="1.000000" stroke="none" 
	d="
M193.262573,78.216843 
	C193.119614,65.624062 193.269913,53.087742 193.730698,40.266891 
	C194.082123,52.356853 194.123077,64.731354 194.056213,77.566452 
	C193.948425,78.027061 194.029572,78.009819 194.036316,77.968857 
	C193.880646,78.043037 193.718231,78.158180 193.262573,78.216843 
z"/>
<path fill="#E20000" opacity="1.000000" stroke="none" 
	d="
M195.479340,39.008598 
	C198.740799,38.646133 202.465561,38.279331 206.197327,38.009579 
	C210.315430,37.711895 214.439957,37.503231 218.922623,37.169304 
	C218.218552,37.742294 217.167435,38.944935 216.086273,38.972565 
	C209.376511,39.144035 202.660004,39.051781 195.479340,39.008598 
z"/>
<path fill="#E30713" opacity="1.000000" stroke="none" 
	d="
M161.110077,56.603020 
	C160.824432,55.513031 160.603638,54.010162 160.642883,52.269661 
	C160.993591,53.418064 161.084259,54.804104 161.110077,56.603020 
z"/>
<path fill="#E20003" opacity="1.000000" stroke="none" 
	d="
M160.320038,97.948395 
	C160.100876,97.592575 160.296570,97.338264 160.833221,97.074997 
	C160.914001,97.306450 160.767578,97.634407 160.320038,97.948395 
z"/>
<path fill="#E20003" opacity="1.000000" stroke="none" 
	d="
M250.323517,97.918427 
	C250.112350,97.569679 250.308319,97.322701 250.838715,97.070488 
	C250.915268,97.295975 250.767761,97.614296 250.323517,97.918427 
z"/>
<path fill="#E30713" opacity="1.000000" stroke="none" 
	d="
M251.151306,50.782043 
	C250.893829,50.837139 250.711670,50.659657 250.553925,50.462643 
	C250.543945,50.450195 250.724213,50.285431 251.002106,50.118759 
	C251.202927,50.212334 251.217590,50.378670 251.151306,50.782043 
z"/>
<path fill="#FFFCFC" opacity="1.000000" stroke="none" 
	d="
M327.116577,80.267639 
	C317.795959,84.123611 310.629303,79.921043 305.419708,73.764290 
	C299.880280,67.217697 299.327545,58.835835 303.133087,50.787842 
	C309.454102,37.420078 330.128754,35.676193 338.671387,47.771645 
	C339.457764,48.885059 339.772400,50.515240 339.829529,51.924786 
	C339.984497,55.748238 339.578949,59.611156 339.941711,63.406223 
	C340.924957,73.691658 337.459473,76.233643 327.116577,80.267639 
z"/>
<path fill="#FFFCFC" opacity="1.000000" stroke="none" 
	d="
M450.374329,70.483223 
	C449.582306,65.304878 447.989471,60.311241 448.638214,55.628120 
	C449.716461,47.844315 454.730286,42.174553 462.511169,40.345631 
	C471.126282,38.320621 479.000092,40.528389 485.201843,47.211494 
	C487.531464,49.721939 487.718018,70.520638 485.491089,73.184959 
	C480.336700,79.351662 472.999512,82.337822 465.709839,81.527939 
	C459.712158,80.861580 453.182526,77.805191 450.374329,70.483223 
z"/>
<path fill="#FEFBFB" opacity="1.000000" stroke="none" 
	d="
M43.608650,38.077057 
	C48.885010,40.506767 52.452572,43.896545 53.319546,49.976891 
	C42.901917,49.976891 32.697437,49.976891 22.474787,49.976891 
	C24.344866,40.487576 33.347679,35.310062 43.608650,38.077057 
z"/>
</svg>