<?xml version="1.0" encoding="utf-8"?>
<!-- Generator: Adobe Illustrator 21.0.0, SVG Export Plug-In . SVG Version: 6.00 Build 0)  -->
<svg version="1.1" id="Layer_1" xmlns="http://www.w3.org/2000/svg" xmlns:xlink="http://www.w3.org/1999/xlink" x="0px" y="0px"
	 viewBox="0 0 270 250" style="enable-background:new 0 0 270 250;" xml:space="preserve">
<style type="text/css">
	.st0{fill:url(#SVGID_1_);}
	.st1{fill:url(#SVGID_2_);}
	.st2{fill:url(#SVGID_3_);}
	.st3{fill:url(#SVGID_4_);}
	.st4{fill:url(#SVGID_5_);}
	.st5{fill:url(#SVGID_6_);}
	.st6{fill:url(#SVGID_7_);}
	.st7{fill:url(#SVGID_8_);}
	.st8{fill:url(#SVGID_9_);}
	.st9{fill:url(#SVGID_10_);}
	.st10{fill:url(#SVGID_11_);}
	.st11{fill:url(#SVGID_12_);}
	.st12{fill:url(#SVGID_13_);}
	.st13{fill:url(#SVGID_14_);}
</style>
<g>
	<g>
		<g>
			<g>
				<linearGradient id="SVGID_1_" gradientUnits="userSpaceOnUse" x1="252.8447" y1="36.3568" x2="30.2465" y2="136.3964">
					<stop  offset="0" style="stop-color:#009643"/>
					<stop  offset="0.1816" style="stop-color:#009346"/>
					<stop  offset="0.3371" style="stop-color:#018951"/>
					<stop  offset="0.4831" style="stop-color:#037963"/>
					<stop  offset="0.6233" style="stop-color:#06637C"/>
					<stop  offset="0.7594" style="stop-color:#09469C"/>
					<stop  offset="0.8905" style="stop-color:#0D23C2"/>
					<stop  offset="1" style="stop-color:#1100E9"/>
				</linearGradient>
				<path class="st0" d="M171.7,87.5c-10.9,0-20.3,6.2-24.8,15.3l-26.5-13.5c3.5-4.6,5.5-10.3,5.5-16.5s-2-11.9-5.5-16.5l26.5-13.5
					c4.4,8.8,13.4,15,23.9,15.3c15.3,0.5,28-11.5,28.5-26.8c0.5-15.3-11.5-28-26.8-28.5s-28,11.5-28.5,26.8c0,1.4,0,2.8,0.2,4.1
					l-31,15.8c-4.3-2.8-9.4-4.4-14.9-4.4c-15.3,0-27.7,12.4-27.7,27.7s12.4,27.7,27.7,27.7c5.5,0,10.6-1.6,14.9-4.4l31,15.8
					c-0.1,1.1-0.2,2.2-0.2,3.3c0,15.3,12.4,27.7,27.7,27.7c15.3,0,27.7-12.4,27.7-27.7C199.4,99.9,187,87.5,171.7,87.5z M172.3,11
					c10.8,0.3,19.2,9.3,18.9,20.1c-0.3,10.8-9.3,19.2-20.1,18.9c-7.5-0.2-13.8-4.6-16.9-10.8c-1.4-2.8-2.1-5.9-2-9.3v-0.1
					C152.6,19,161.5,10.7,172.3,11z M104.1,91.5c-1.8,0.6-3.8,0.9-5.8,0.9c-10.8,0-19.5-8.7-19.5-19.5c0-10.8,8.7-19.5,19.5-19.5
					c2,0,3.9,0.3,5.8,0.9h0c3.5,1.1,6.6,3.1,8.9,5.9c3,3.4,4.8,7.9,4.8,12.8s-1.8,9.3-4.8,12.8C110.7,88.3,107.6,90.4,104.1,91.5
					L104.1,91.5z M171.7,134.7c-10.5,0-19.1-8.3-19.5-18.7c0-0.3,0-0.5,0-0.8c0-3.1,0.7-6.1,2-8.6c3.2-6.4,9.8-10.8,17.5-10.8
					c10.8,0,19.5,8.7,19.5,19.5C191.2,126,182.5,134.7,171.7,134.7z"/>
			</g>
			<g>
				<linearGradient id="SVGID_2_" gradientUnits="userSpaceOnUse" x1="236.7334" y1="1.2609" x2="15.703" y2="100.596">
					<stop  offset="0" style="stop-color:#009643"/>
					<stop  offset="0.1816" style="stop-color:#009346"/>
					<stop  offset="0.3371" style="stop-color:#018951"/>
					<stop  offset="0.4831" style="stop-color:#037963"/>
					<stop  offset="0.6233" style="stop-color:#06637C"/>
					<stop  offset="0.7594" style="stop-color:#09469C"/>
					<stop  offset="0.8905" style="stop-color:#0D23C2"/>
					<stop  offset="1" style="stop-color:#1100E9"/>
				</linearGradient>
				<circle class="st1" cx="171.7" cy="30.5" r="3.1"/>
				<linearGradient id="SVGID_3_" gradientUnits="userSpaceOnUse" x1="239.5906" y1="4.1614" x2="18.5601" y2="103.4964">
					<stop  offset="0" style="stop-color:#009643"/>
					<stop  offset="0.1816" style="stop-color:#009346"/>
					<stop  offset="0.3371" style="stop-color:#018951"/>
					<stop  offset="0.4831" style="stop-color:#037963"/>
					<stop  offset="0.6233" style="stop-color:#06637C"/>
					<stop  offset="0.7594" style="stop-color:#09469C"/>
					<stop  offset="0.8905" style="stop-color:#0D23C2"/>
					<stop  offset="1" style="stop-color:#1100E9"/>
				</linearGradient>
				<circle class="st2" cx="181" cy="30.5" r="3.1"/>
				<linearGradient id="SVGID_4_" gradientUnits="userSpaceOnUse" x1="233.8763" y1="-1.6395" x2="12.8458" y2="97.6955">
					<stop  offset="0" style="stop-color:#009643"/>
					<stop  offset="0.1816" style="stop-color:#009346"/>
					<stop  offset="0.3371" style="stop-color:#018951"/>
					<stop  offset="0.4831" style="stop-color:#037963"/>
					<stop  offset="0.6233" style="stop-color:#06637C"/>
					<stop  offset="0.7594" style="stop-color:#09469C"/>
					<stop  offset="0.8905" style="stop-color:#0D23C2"/>
					<stop  offset="1" style="stop-color:#1100E9"/>
				</linearGradient>
				<circle class="st3" cx="162.4" cy="30.5" r="3.1"/>
			</g>
			<g>
				<linearGradient id="SVGID_5_" gradientUnits="userSpaceOnUse" x1="286.9644" y1="63.3628" x2="65.9339" y2="162.6978">
					<stop  offset="0" style="stop-color:#009643"/>
					<stop  offset="0.1816" style="stop-color:#009346"/>
					<stop  offset="0.3371" style="stop-color:#018951"/>
					<stop  offset="0.4831" style="stop-color:#037963"/>
					<stop  offset="0.6233" style="stop-color:#06637C"/>
					<stop  offset="0.7594" style="stop-color:#09469C"/>
					<stop  offset="0.8905" style="stop-color:#0D23C2"/>
					<stop  offset="1" style="stop-color:#1100E9"/>
				</linearGradient>
				<circle class="st4" cx="171.7" cy="115.2" r="3.1"/>
				<linearGradient id="SVGID_6_" gradientUnits="userSpaceOnUse" x1="289.8216" y1="66.2632" x2="68.7911" y2="165.5983">
					<stop  offset="0" style="stop-color:#009643"/>
					<stop  offset="0.1816" style="stop-color:#009346"/>
					<stop  offset="0.3371" style="stop-color:#018951"/>
					<stop  offset="0.4831" style="stop-color:#037963"/>
					<stop  offset="0.6233" style="stop-color:#06637C"/>
					<stop  offset="0.7594" style="stop-color:#09469C"/>
					<stop  offset="0.8905" style="stop-color:#0D23C2"/>
					<stop  offset="1" style="stop-color:#1100E9"/>
				</linearGradient>
				<circle class="st5" cx="181" cy="115.2" r="3.1"/>
				<linearGradient id="SVGID_7_" gradientUnits="userSpaceOnUse" x1="284.1073" y1="60.4623" x2="63.0768" y2="159.7973">
					<stop  offset="0" style="stop-color:#009643"/>
					<stop  offset="0.1816" style="stop-color:#009346"/>
					<stop  offset="0.3371" style="stop-color:#018951"/>
					<stop  offset="0.4831" style="stop-color:#037963"/>
					<stop  offset="0.6233" style="stop-color:#06637C"/>
					<stop  offset="0.7594" style="stop-color:#09469C"/>
					<stop  offset="0.8905" style="stop-color:#0D23C2"/>
					<stop  offset="1" style="stop-color:#1100E9"/>
				</linearGradient>
				<circle class="st6" cx="162.4" cy="115.2" r="3.1"/>
			</g>
			<linearGradient id="SVGID_8_" gradientUnits="userSpaceOnUse" x1="215.5883" y1="20.9388" x2="32.3054" y2="103.3094">
				<stop  offset="0" style="stop-color:#009643"/>
				<stop  offset="0.1816" style="stop-color:#009346"/>
				<stop  offset="0.3371" style="stop-color:#018951"/>
				<stop  offset="0.4831" style="stop-color:#037963"/>
				<stop  offset="0.6233" style="stop-color:#06637C"/>
				<stop  offset="0.7594" style="stop-color:#09469C"/>
				<stop  offset="0.8905" style="stop-color:#0D23C2"/>
				<stop  offset="1" style="stop-color:#1100E9"/>
			</linearGradient>
			<path class="st7" d="M102.9,67.1c0-2.6-2.1-4.6-4.6-4.6s-4.6,2.1-4.6,4.6c0,1.6,0.8,3,2.1,3.8l-2.1,12.3h9.2l-2.1-12.3
				C102.1,70.1,102.9,68.7,102.9,67.1z"/>
		</g>
	</g>
	<g>
		<linearGradient id="SVGID_9_" gradientUnits="userSpaceOnUse" x1="60.8862" y1="182.2559" x2="13.3389" y2="203.6245">
			<stop  offset="0" style="stop-color:#009643"/>
			<stop  offset="0.1816" style="stop-color:#009346"/>
			<stop  offset="0.3371" style="stop-color:#018951"/>
			<stop  offset="0.4831" style="stop-color:#037963"/>
			<stop  offset="0.6233" style="stop-color:#06637C"/>
			<stop  offset="0.7594" style="stop-color:#09469C"/>
			<stop  offset="0.8905" style="stop-color:#0D23C2"/>
			<stop  offset="1" style="stop-color:#1100E9"/>
		</linearGradient>
		<path class="st8" d="M25.1,229.8V205L6.4,170.5h12.3l7.1,15.2c2,4.4,3.5,7.7,5.1,11.8h0.2c1.5-3.8,3.2-7.5,5.2-11.8l7.1-15.2h12.2
			l-19.7,34.3v25H25.1z"/>
		<linearGradient id="SVGID_10_" gradientUnits="userSpaceOnUse" x1="92.7942" y1="199.1935" x2="52.1792" y2="217.4466">
			<stop  offset="0" style="stop-color:#009643"/>
			<stop  offset="0.1816" style="stop-color:#009346"/>
			<stop  offset="0.3371" style="stop-color:#018951"/>
			<stop  offset="0.4831" style="stop-color:#037963"/>
			<stop  offset="0.6233" style="stop-color:#06637C"/>
			<stop  offset="0.7594" style="stop-color:#09469C"/>
			<stop  offset="0.8905" style="stop-color:#0D23C2"/>
			<stop  offset="1" style="stop-color:#1100E9"/>
		</linearGradient>
		<path class="st9" d="M94.2,208c0,15.7-11.1,22.8-22,22.8c-12.1,0-21.5-8.4-21.5-22.1c0-14.1,9.2-22.7,22.2-22.7
			C85.7,186,94.2,194.9,94.2,208z M61.9,208.4c0,8.3,4,14.5,10.6,14.5c6.2,0,10.5-6.1,10.5-14.7c0-6.7-3-14.3-10.4-14.3
			C65,193.9,61.9,201.3,61.9,208.4z"/>
		<linearGradient id="SVGID_11_" gradientUnits="userSpaceOnUse" x1="145.1159" y1="200.5121" x2="92.6989" y2="224.0692">
			<stop  offset="0" style="stop-color:#009643"/>
			<stop  offset="0.1816" style="stop-color:#009346"/>
			<stop  offset="0.3371" style="stop-color:#018951"/>
			<stop  offset="0.4831" style="stop-color:#037963"/>
			<stop  offset="0.6233" style="stop-color:#06637C"/>
			<stop  offset="0.7594" style="stop-color:#09469C"/>
			<stop  offset="0.8905" style="stop-color:#0D23C2"/>
			<stop  offset="1" style="stop-color:#1100E9"/>
		</linearGradient>
		<path class="st10" d="M103.1,201.2c0-5.6-0.2-10.2-0.4-14.2h9.5l0.5,6.6h0.2c3.2-4.8,8.2-7.6,14.7-7.6c9.8,0,18,8.4,18,21.8
			c0,15.5-9.8,23-19.5,23c-5.4,0-9.8-2.3-12-5.7h-0.2v22.2h-10.8V201.2z M113.9,211.8c0,1.1,0.1,2,0.4,3c1.1,4.4,4.9,7.6,9.5,7.6
			c6.9,0,10.9-5.7,10.9-14.2c0-7.6-3.7-13.7-10.6-13.7c-4.5,0-8.6,3.3-9.7,8c-0.3,0.9-0.4,1.8-0.4,2.7V211.8z"/>
		<linearGradient id="SVGID_12_" gradientUnits="userSpaceOnUse" x1="189.1803" y1="201.725" x2="150.7371" y2="219.0021">
			<stop  offset="0" style="stop-color:#009643"/>
			<stop  offset="0.1816" style="stop-color:#009346"/>
			<stop  offset="0.3371" style="stop-color:#018951"/>
			<stop  offset="0.4831" style="stop-color:#037963"/>
			<stop  offset="0.6233" style="stop-color:#06637C"/>
			<stop  offset="0.7594" style="stop-color:#09469C"/>
			<stop  offset="0.8905" style="stop-color:#0D23C2"/>
			<stop  offset="1" style="stop-color:#1100E9"/>
		</linearGradient>
		<path class="st11" d="M178.6,229.8l-0.7-4.7h-0.3c-2.6,3.3-7.1,5.7-12.7,5.7c-8.6,0-13.5-6.2-13.5-12.8c0-10.8,9.6-16.3,25.4-16.2
			v-0.7c0-2.8-1.1-7.5-8.7-7.5c-4.2,0-8.6,1.3-11.5,3.2l-2.1-7c3.2-1.9,8.7-3.8,15.5-3.8c13.7,0,17.7,8.7,17.7,18v15.5
			c0,3.9,0.2,7.7,0.6,10.3H178.6z M177.2,208.8c-7.7-0.2-14.9,1.5-14.9,8c0,4.2,2.7,6.2,6.2,6.2c4.3,0,7.5-2.8,8.4-5.9
			c0.3-0.8,0.4-1.7,0.4-2.4V208.8z"/>
		<linearGradient id="SVGID_13_" gradientUnits="userSpaceOnUse" x1="230.4401" y1="200.131" x2="191.9589" y2="217.4252">
			<stop  offset="0" style="stop-color:#009643"/>
			<stop  offset="0.1816" style="stop-color:#009346"/>
			<stop  offset="0.3371" style="stop-color:#018951"/>
			<stop  offset="0.4831" style="stop-color:#037963"/>
			<stop  offset="0.6233" style="stop-color:#06637C"/>
			<stop  offset="0.7594" style="stop-color:#09469C"/>
			<stop  offset="0.8905" style="stop-color:#0D23C2"/>
			<stop  offset="1" style="stop-color:#1100E9"/>
		</linearGradient>
		<path class="st12" d="M198.7,219.8c2.5,1.5,7.1,3.1,11,3.1c4.7,0,6.9-1.9,6.9-4.7c0-2.9-1.8-4.4-7-6.2
			c-8.4-2.9-11.9-7.5-11.8-12.5c0-7.6,6.2-13.5,16.2-13.5c4.7,0,8.9,1.2,11.3,2.6l-2.1,7.7c-1.8-1.1-5.3-2.5-9.1-2.5
			c-3.9,0-6,1.8-6,4.5c0,2.7,2,4,7.5,6c7.7,2.8,11.3,6.8,11.4,13.1c0,7.7-6.1,13.4-17.4,13.4c-5.2,0-9.8-1.2-13-3L198.7,219.8z"/>
		<linearGradient id="SVGID_14_" gradientUnits="userSpaceOnUse" x1="267.1071" y1="200.131" x2="228.6259" y2="217.4252">
			<stop  offset="0" style="stop-color:#009643"/>
			<stop  offset="0.1816" style="stop-color:#009346"/>
			<stop  offset="0.3371" style="stop-color:#018951"/>
			<stop  offset="0.4831" style="stop-color:#037963"/>
			<stop  offset="0.6233" style="stop-color:#06637C"/>
			<stop  offset="0.7594" style="stop-color:#09469C"/>
			<stop  offset="0.8905" style="stop-color:#0D23C2"/>
			<stop  offset="1" style="stop-color:#1100E9"/>
		</linearGradient>
		<path class="st13" d="M235.3,219.8c2.5,1.5,7.1,3.1,11,3.1c4.7,0,6.9-1.9,6.9-4.7c0-2.9-1.8-4.4-7-6.2
			c-8.4-2.9-11.9-7.5-11.8-12.5c0-7.6,6.2-13.5,16.2-13.5c4.7,0,8.9,1.2,11.3,2.6l-2.1,7.7c-1.8-1.1-5.3-2.5-9.1-2.5
			c-3.9,0-6,1.8-6,4.5c0,2.7,2,4,7.5,6c7.7,2.8,11.3,6.8,11.4,13.1c0,7.7-6.1,13.4-17.4,13.4c-5.2,0-9.8-1.2-13-3L235.3,219.8z"/>
	</g>
</g>
</svg>
