<?xml version="1.0" encoding="utf-8"?>
<!-- Generator: Adobe Illustrator 21.0.0, SVG Export Plug-In . SVG Version: 6.00 Build 0)  -->
<svg version="1.1" id="Layer_1" xmlns="http://www.w3.org/2000/svg" xmlns:xlink="http://www.w3.org/1999/xlink" x="0px" y="0px"
	 viewBox="0 0 42 42" style="enable-background:new 0 0 42 42;" xml:space="preserve">
<style type="text/css">
	.st0{fill:url(#SVGID_1_);}
	.st1{fill:url(#SVGID_2_);}
	.st2{fill:url(#SVGID_3_);}
	.st3{fill:url(#SVGID_4_);}
	.st4{fill:url(#SVGID_5_);}
	.st5{fill:url(#SVGID_6_);}
	.st6{fill:url(#SVGID_7_);}
	.st7{fill:url(#SVGID_8_);}
</style>
<g>
	<g>
		<linearGradient id="SVGID_1_" gradientUnits="userSpaceOnUse" x1="55.786" y1="10.2336" x2="-9.9217" y2="39.7639">
			<stop  offset="0" style="stop-color:#009643"/>
			<stop  offset="0.1816" style="stop-color:#009346"/>
			<stop  offset="0.3371" style="stop-color:#018951"/>
			<stop  offset="0.4831" style="stop-color:#037963"/>
			<stop  offset="0.6233" style="stop-color:#06637C"/>
			<stop  offset="0.7594" style="stop-color:#09469C"/>
			<stop  offset="0.8905" style="stop-color:#0D23C2"/>
			<stop  offset="1" style="stop-color:#1100E9"/>
		</linearGradient>
		<path class="st0" d="M31.8,25.3c-3.2,0-6,1.8-7.3,4.5l-7.8-4c1-1.4,1.6-3,1.6-4.9c0-1.8-0.6-3.5-1.6-4.9l7.8-4
			c1.3,2.6,3.9,4.4,7,4.5c4.5,0.1,8.3-3.4,8.4-7.9c0.1-4.5-3.4-8.3-7.9-8.4s-8.3,3.4-8.4,7.9c0,0.4,0,0.8,0.1,1.2l-9.2,4.7
			c-1.3-0.8-2.8-1.3-4.4-1.3C5.6,12.8,2,16.5,2,21s3.6,8.2,8.2,8.2c1.6,0,3.1-0.5,4.4-1.3l9.2,4.7c0,0.3-0.1,0.6-0.1,1
			c0,4.5,3.6,8.2,8.2,8.2c4.5,0,8.2-3.6,8.2-8.2C40,29,36.3,25.3,31.8,25.3z M32,2.7c3.2,0.1,5.7,2.8,5.6,5.9
			c-0.1,3.2-2.8,5.7-5.9,5.6c-2.2-0.1-4.1-1.4-5-3.2c-0.4-0.8-0.6-1.8-0.6-2.7v0C26.2,5.1,28.8,2.7,32,2.7z M11.9,26.5
			c-0.5,0.2-1.1,0.3-1.7,0.3c-3.2,0-5.8-2.6-5.8-5.8c0-3.2,2.6-5.8,5.8-5.8c0.6,0,1.2,0.1,1.7,0.3h0c1,0.3,1.9,0.9,2.6,1.7
			c0.9,1,1.4,2.3,1.4,3.8c0,1.4-0.5,2.8-1.4,3.8C13.8,25.6,12.9,26.2,11.9,26.5L11.9,26.5z M31.8,39.3c-3.1,0-5.6-2.5-5.8-5.5
			c0-0.1,0-0.2,0-0.2c0-0.9,0.2-1.8,0.6-2.5c0.9-1.9,2.9-3.2,5.2-3.2c3.2,0,5.8,2.6,5.8,5.8C37.6,36.7,35,39.3,31.8,39.3z"/>
	</g>
	<g>
		<linearGradient id="SVGID_2_" gradientUnits="userSpaceOnUse" x1="51.0302" y1="-0.1261" x2="-14.2147" y2="29.1961">
			<stop  offset="0" style="stop-color:#009643"/>
			<stop  offset="0.1816" style="stop-color:#009346"/>
			<stop  offset="0.3371" style="stop-color:#018951"/>
			<stop  offset="0.4831" style="stop-color:#037963"/>
			<stop  offset="0.6233" style="stop-color:#06637C"/>
			<stop  offset="0.7594" style="stop-color:#09469C"/>
			<stop  offset="0.8905" style="stop-color:#0D23C2"/>
			<stop  offset="1" style="stop-color:#1100E9"/>
		</linearGradient>
		<circle class="st1" cx="31.8" cy="8.5" r="0.9"/>
		<linearGradient id="SVGID_3_" gradientUnits="userSpaceOnUse" x1="51.8736" y1="0.73" x2="-13.3714" y2="30.0523">
			<stop  offset="0" style="stop-color:#009643"/>
			<stop  offset="0.1816" style="stop-color:#009346"/>
			<stop  offset="0.3371" style="stop-color:#018951"/>
			<stop  offset="0.4831" style="stop-color:#037963"/>
			<stop  offset="0.6233" style="stop-color:#06637C"/>
			<stop  offset="0.7594" style="stop-color:#09469C"/>
			<stop  offset="0.8905" style="stop-color:#0D23C2"/>
			<stop  offset="1" style="stop-color:#1100E9"/>
		</linearGradient>
		<circle class="st2" cx="34.6" cy="8.5" r="0.9"/>
		<linearGradient id="SVGID_4_" gradientUnits="userSpaceOnUse" x1="50.1868" y1="-0.9823" x2="-15.0581" y2="28.3399">
			<stop  offset="0" style="stop-color:#009643"/>
			<stop  offset="0.1816" style="stop-color:#009346"/>
			<stop  offset="0.3371" style="stop-color:#018951"/>
			<stop  offset="0.4831" style="stop-color:#037963"/>
			<stop  offset="0.6233" style="stop-color:#06637C"/>
			<stop  offset="0.7594" style="stop-color:#09469C"/>
			<stop  offset="0.8905" style="stop-color:#0D23C2"/>
			<stop  offset="1" style="stop-color:#1100E9"/>
		</linearGradient>
		<circle class="st3" cx="29.1" cy="8.5" r="0.9"/>
	</g>
	<g>
		<linearGradient id="SVGID_5_" gradientUnits="userSpaceOnUse" x1="65.8577" y1="18.2054" x2="0.6127" y2="47.5277">
			<stop  offset="0" style="stop-color:#009643"/>
			<stop  offset="0.1816" style="stop-color:#009346"/>
			<stop  offset="0.3371" style="stop-color:#018951"/>
			<stop  offset="0.4831" style="stop-color:#037963"/>
			<stop  offset="0.6233" style="stop-color:#06637C"/>
			<stop  offset="0.7594" style="stop-color:#09469C"/>
			<stop  offset="0.8905" style="stop-color:#0D23C2"/>
			<stop  offset="1" style="stop-color:#1100E9"/>
		</linearGradient>
		<circle class="st4" cx="31.8" cy="33.5" r="0.9"/>
		<linearGradient id="SVGID_6_" gradientUnits="userSpaceOnUse" x1="66.7011" y1="19.0616" x2="1.4561" y2="48.3839">
			<stop  offset="0" style="stop-color:#009643"/>
			<stop  offset="0.1816" style="stop-color:#009346"/>
			<stop  offset="0.3371" style="stop-color:#018951"/>
			<stop  offset="0.4831" style="stop-color:#037963"/>
			<stop  offset="0.6233" style="stop-color:#06637C"/>
			<stop  offset="0.7594" style="stop-color:#09469C"/>
			<stop  offset="0.8905" style="stop-color:#0D23C2"/>
			<stop  offset="1" style="stop-color:#1100E9"/>
		</linearGradient>
		<circle class="st5" cx="34.6" cy="33.5" r="0.9"/>
		<linearGradient id="SVGID_7_" gradientUnits="userSpaceOnUse" x1="65.0143" y1="17.3492" x2="-0.2307" y2="46.6715">
			<stop  offset="0" style="stop-color:#009643"/>
			<stop  offset="0.1816" style="stop-color:#009346"/>
			<stop  offset="0.3371" style="stop-color:#018951"/>
			<stop  offset="0.4831" style="stop-color:#037963"/>
			<stop  offset="0.6233" style="stop-color:#06637C"/>
			<stop  offset="0.7594" style="stop-color:#09469C"/>
			<stop  offset="0.8905" style="stop-color:#0D23C2"/>
			<stop  offset="1" style="stop-color:#1100E9"/>
		</linearGradient>
		<circle class="st6" cx="29.1" cy="33.5" r="0.9"/>
	</g>
	<linearGradient id="SVGID_8_" gradientUnits="userSpaceOnUse" x1="44.7885" y1="5.6825" x2="-9.3139" y2="29.9971">
		<stop  offset="0" style="stop-color:#009643"/>
		<stop  offset="0.1816" style="stop-color:#009346"/>
		<stop  offset="0.3371" style="stop-color:#018951"/>
		<stop  offset="0.4831" style="stop-color:#037963"/>
		<stop  offset="0.6233" style="stop-color:#06637C"/>
		<stop  offset="0.7594" style="stop-color:#09469C"/>
		<stop  offset="0.8905" style="stop-color:#0D23C2"/>
		<stop  offset="1" style="stop-color:#1100E9"/>
	</linearGradient>
	<path class="st7" d="M11.5,19.3c0-0.8-0.6-1.4-1.4-1.4c-0.8,0-1.4,0.6-1.4,1.4c0,0.5,0.2,0.9,0.6,1.1l-0.6,3.6h2.7l-0.6-3.6
		C11.3,20.2,11.5,19.8,11.5,19.3z"/>
</g>
</svg>
