<?xml version="1.0" encoding="UTF-8"?> <svg xmlns="http://www.w3.org/2000/svg" height="289.999" viewBox="0 0 819.6 289.999" width="819.6"><g fill="#004c82" transform="translate(.01 -.01)"><path d="m197.51 109.54v105.4q0 3.67-3.73 3.68h-75.15c-3.72 0-3.79-.07-3.79-3.72v-75.63q0-3.67-3.73-3.68h-25.21c-3.14 0-3.15.02-3.15 3.24v76.11q0 3.67-3.74 3.68h-75.15c-3.73 0-3.78-.05-3.78-3.73v-211.03c0-3.71.07-3.79 3.73-3.79h75.39c3.54 0 3.54.01 3.54 3.64v65.06c0 3.32 0 3.33 3.32 3.33 8.56 0 17.13-.08 25.69.05 2.46.04 3.13-.82 3.13-3.2-.07-21.61-.04-43.22-.04-64.82q0-4.05 3.94-4.06h75.15c3.57 0 3.58.01 3.58 3.59z"></path><path d="m621.38 109.24v-105.37q0-3.83 3.85-3.83c39.44.01 78.89-.13 118.33.12 14.38.09 28.54 2.22 41.78 8.4 15.71 7.34 25.15 19.8 29.61 36.29a102.315 102.315 0 0 1 3.33 26.58c.05 25.76.15 51.53-.04 77.29-.09 12.47-1.95 24.71-7.33 36.16-5.98 12.71-15.76 21.36-28.64 26.63a91.973 91.973 0 0 1 -31.06 6.62c-28.62 1.22-57.27.28-85.9.51-13.44.11-26.88.02-40.32.02-3.6 0-3.62 0-3.62-3.57v-105.85zm81.69.11q0 29.625-.03 59.26c0 2.11.56 3.05 2.84 2.98 4.79-.15 9.6.04 14.39-.15 7.3-.29 12.34-4.07 14.13-10.49a30.827 30.827 0 0 0 1.22-8.28q0-42.945.02-85.89a35.973 35.973 0 0 0 -1.03-8.07c-1.4-6.09-5.13-9.78-11.27-10.99-5.47-1.08-11-.43-16.51-.56-3.75-.09-3.76-.01-3.76 3.65z"></path><path d="m499.26.07c17.76 0 35.53.05 53.29-.05 2.45-.01 3.51.76 4.11 3.15q8.535 33.735 17.26 67.41 14.98 58.215 29.98 116.41 3.675 14.295 7.33 28.59c.73 2.85.59 3.05-2.31 3.05q-39.375 0-78.74.05c-2.27 0-3.06-.91-3.41-2.96-1.57-9.22-3.25-18.43-4.86-27.64-.61-3.52-.58-3.54-4.23-3.54-12.56 0-25.13.07-37.69-.06-2.6-.03-3.63.72-4.05 3.32-1.49 9.23-3.29 18.42-4.82 27.65-.4 2.42-1.35 3.26-3.88 3.25-26.17-.09-52.33-.05-78.5-.06-3.37 0-3.47-.18-2.62-3.41q14.52-55.23 29.03-110.46 13.41-51.06 26.79-102.12c.54-2.08 1.57-2.6 3.54-2.59 17.92.05 35.85.03 53.77.03zm1.08 40.92h-.29l-.15.87q-2.955 17.865-5.9 35.72-5.085 30.75-10.19 61.51c-.31 1.85.16 2.67 2.16 2.66q13.44-.075 26.88 0c1.97.01 2.52-.75 2.22-2.63-1.04-6.55-2-13.12-2.98-19.68q-3.75-25.02-7.48-50.03-2.13-14.22-4.28-28.42z"></path><path d="m208.38 109.23v-105.38q0-3.77 3.66-3.77h161.8q3.71 0 3.71 3.72v45.13c0 3.54 0 3.55-3.64 3.55h-79.22q-3.66 0-3.67 3.76v24.73q0 3.62 3.56 3.63h71.78q4.02 0 4.02 4.12v38.89q0 4.11-4.02 4.12h-71.54q-3.8 0-3.8 3.87v26.89q0 3.75 3.68 3.76h78.98q3.87 0 3.87 3.79v45.37c0 3.14-.09 3.24-3.23 3.24h-162.76c-3.1 0-3.18-.09-3.18-3.29v-106.1z"></path><path d="m735.11 272.26v-9.79c0-11.52.06-23.05-.05-34.57-.02-2.44.77-3.41 3.17-3.11a12.974 12.974 0 0 0 2.16.02c1.55-.06 2.18.72 2.1 2.21-.03.56 0 1.12 0 1.68q0 29.28-.02 58.57c0 .92.49 2.3-.4 2.66-1.05.42-1.67-.95-2.35-1.66q-21.945-22.845-43.82-45.74a19.9 19.9 0 0 1 -1.61-2.25 4.293 4.293 0 0 0 -.77 3.35c-.02 13.76 0 27.53-.04 41.29 0 1.1.58 2.75-1.03 3.07-1.92.38-4.03.73-5.85-.31-.88-.51-.47-1.78-.47-2.71q-.03-28.56-.01-57.13c0-1.12-.03-2.24 0-3.36.02-.52-.22-1.24.44-1.48.63-.23.98.41 1.35.79 3.66 3.8 7.3 7.63 10.95 11.44q17.01 17.76 34.05 35.5a3.6 3.6 0 0 0 2.18 1.55z"></path><path d="m291.61 256.63a32.951 32.951 0 0 1 -65.9-.57c.07-17.84 15.19-32.35 33.64-32.27 17.72.08 32.33 14.95 32.26 32.83zm-58.21-.3c0 14.47 11.12 25.71 25.39 25.66a25.677 25.677 0 0 0 25.46-25.56c.06-13.93-11.54-25.75-25.36-25.72-14.64.03-26.02 12.1-25.48 25.62z"></path><path d="m648.89 256.53a32.731 32.731 0 0 1 -32.66 32.68c-17.96.13-33.11-14.68-33.27-32.54-.16-17.66 14.92-32.84 32.65-32.86 18.66-.03 33.22 14.3 33.27 32.73zm-58.23-.07a25.42 25.42 0 1 0 50.84.11 25.423 25.423 0 1 0 -50.84-.11z"></path><path d="m432.29 248.35c0 6.24.04 12.48 0 18.72-.08 10.57-5.96 18.32-15.94 21.08-10.17 2.81-21.24-1.16-26.35-9.49a21.489 21.489 0 0 1 -2.92-11.26c-.1-13.36-.03-26.72-.09-40.09 0-1.85.67-2.53 2.52-2.56 4.88-.08 4.88-.15 4.88 4.73 0 11.28-.03 22.56.02 33.85a59.468 59.468 0 0 0 .52 7.17 12.335 12.335 0 0 0 2.16 5.54c3.31 4.7 10.54 7.14 16.57 5.54 6.54-1.73 10.11-5.88 10.91-12.42a69.072 69.072 0 0 0 .33-8.38c.01-11.04.05-22.08-.04-33.12-.02-2.21.72-2.94 2.9-2.91 4.52.06 4.52-.04 4.52 4.39v19.2z"></path><path d="m172.69 223.79a18.3 18.3 0 0 1 15.39 7.85c1.06 1.42 1.3 2.53-.56 3.39a2.259 2.259 0 0 0 -.2.13c-3.51 2.34-3.46 2.3-6.27-.79a10.566 10.566 0 0 0 -10.9-3.26 9.206 9.206 0 0 0 -7.38 7.05c-.96 3.78.68 7.13 4.89 9.39 2.95 1.58 6.07 2.87 9.13 4.25 3.95 1.78 7.93 3.62 10.82 6.94 6.51 7.5 4.65 20.05-3.76 26.36a20.226 20.226 0 0 1 -31.47-9.94c-.65-1.99-.32-3.05 1.8-3.38a9.45 9.45 0 0 0 1.15-.34q3.39-.96 4.58 2.38a12.4 12.4 0 0 0 14.86 7.86 11.941 11.941 0 0 0 9.05-13.61c-.56-3.77-3.2-5.97-6.27-7.71-4.53-2.56-9.53-4.14-14.04-6.76-8.89-5.16-11.27-15.3-5.39-23.14 2.98-3.98 8.83-6.65 14.56-6.66z"></path><path d="m800.9 223.78a18.188 18.188 0 0 1 15.41 8.24c.89 1.28.81 2.16-.59 2.89-.28.15-.54.34-.81.52q-3.19 2.1-5.66-.92c-4.43-5.42-13.93-4.89-17.39.98-2.68 4.55-1.4 9.06 3.66 11.91 3.06 1.72 6.35 3.02 9.52 4.55 1.87.9 3.73 1.83 5.55 2.83 12.72 6.98 10.57 22.51 2.13 29.58-9.94 8.32-26.78 5.94-32.04-8.4-1.16-3.15-1.09-3.36 2.1-4.36.46-.14.94-.24 1.37-.42 1.95-.84 2.94-.41 3.55 1.84a11.8 11.8 0 0 0 10.67 8.93c5.89.29 10.52-2.34 12.67-7.22 2.28-5.16.69-10.41-4.18-13.6a68.2 68.2 0 0 0 -10.36-5.01 31.892 31.892 0 0 1 -8.43-5c-7.87-6.9-6.22-20.16 3.11-24.95a19.225 19.225 0 0 1 9.7-2.39z"></path><path d="m481.6 259.97c0-8.32-.07-16.65.04-24.97.03-2.3-.72-3.14-3.02-3.03-3.19.15-6.4-.01-9.6.05-1.87.04-2.75-.6-2.78-2.63-.06-4.6-.14-4.6 4.56-4.6h30.49c2.99 0 3.03.08 3.03 3.68 0 3.37-.08 3.49-2.96 3.52-2.64.02-5.28 0-7.92 0q-4.48 0-4.49 4.37 0 24.135-.02 48.26c0 1.12.61 2.74-.8 3.23a8.7 8.7 0 0 1 -5.87-.05c-.95-.36-.64-1.54-.64-2.39q-.03-12.72-.01-25.45z"></path><path d="m57.12 260.14v-24.71c0-3.4-.01-3.4-3.51-3.42-3.04-.01-6.08-.07-9.12.01-1.98.05-2.79-.8-2.65-2.73.05-.72.03-1.44.01-2.16-.04-1.57.64-2.34 2.29-2.34q16.785.03 33.58 0c1.34 0 2 .51 2.12 1.96.41 5.1.31 5.25-4.84 5.25-2.56 0-5.12.11-7.67-.03-2.21-.12-2.89.72-2.88 2.91.07 16.23.04 32.46.04 48.7 0 4.75 0 4.65-4.73 4.64-2.17 0-2.69-.91-2.68-2.9.08-8.4.03-16.79.03-25.19z"></path><path d="m328.42 256.4v-28.06q0-3.54 3.64-3.54a5.766 5.766 0 0 0 .72 0c2.25-.28 3.12.61 3.06 2.96-.14 5.75-.04 11.51-.04 17.26 0 11.03.05 22.06-.04 33.09-.02 2.18.63 2.99 2.86 2.91 3.99-.14 7.99.02 11.99-.06 1.87-.03 2.5.72 2.51 2.56.03 4.67.1 4.67-4.46 4.67-5.84 0-11.67-.06-17.51.03-2.09.03-2.78-.73-2.76-2.81.08-9.67.04-19.34.03-29.02z"></path><path d="m.02 256.26v-27.57q0-3.91 4.02-3.9h.24c3.24.02 3.42.18 3.42 3.36q.015 14.985 0 29.97v25.89q0 4.2-4.3 4.17c-.24 0-.48-.02-.72 0-1.94.15-2.71-.72-2.69-2.68.07-5.99.02-11.99.02-17.98v-11.27z"></path><path d="m538.79 256.26v-27.57q0-3.91 4.02-3.89h.24c3.25.02 3.42.17 3.43 3.35q.015 14.745 0 29.49v26.61c0 3.93-.02 3.94-4.06 3.93-.32 0-.64-.02-.96 0-1.93.14-2.72-.7-2.7-2.68.07-6.31.02-12.63.02-18.94v-10.31z"></path></g></svg> 